<?xml version="1.0" encoding="UTF-8" standalone="no"?>
<!-- Created with Inkscape (http://www.inkscape.org/) -->

<svg
   width="101.41974mm"
   height="101.41974mm"
   viewBox="0 0 101.41974 101.41974"
   version="1.1"
   id="svg8404"
   sodipodi:docname="IOP-EC.svg"
   inkscape:version="1.1.2 (0a00cf5339, 2022-02-04)"
   xmlns:inkscape="http://www.inkscape.org/namespaces/inkscape"
   xmlns:sodipodi="http://sodipodi.sourceforge.net/DTD/sodipodi-0.dtd"
   xmlns="http://www.w3.org/2000/svg"
   xmlns:svg="http://www.w3.org/2000/svg">
  <sodipodi:namedview
     id="namedview8406"
     pagecolor="#ffffff"
     bordercolor="#666666"
     borderopacity="1.0"
     inkscape:pageshadow="2"
     inkscape:pageopacity="0.0"
     inkscape:pagecheckerboard="0"
     inkscape:document-units="mm"
     showgrid="false"
     lock-margins="true"
     inkscape:zoom="0.85876689"
     inkscape:cx="259.67466"
     inkscape:cy="202.6161"
     inkscape:window-width="1920"
     inkscape:window-height="1063"
     inkscape:window-x="0"
     inkscape:window-y="17"
     inkscape:window-maximized="1"
     inkscape:current-layer="g27266"
     inkscape:snap-to-guides="false"
     fit-margin-top="3.5"
     fit-margin-left="3.5"
     fit-margin-right="3.5"
     fit-margin-bottom="3.5" />
  <defs
     id="defs8401" />
  <g
     inkscape:label="Layer 1"
     inkscape:groupmode="layer"
     id="layer1"
     transform="translate(-51.173608,-32.326917)">
    <g
       id="g26561"
       transform="matrix(0.26458333,0,0,0.26458333,99.378386,5.2511258)">
      <g
         id="g27266"
         transform="translate(-604.83559,63.07894)">
        <g
           id="g26585"
           transform="translate(-441.26485,51.924345)">
          <path
             d="m 1234,178.99 c 0,98.545 -79.89,178.431 -178.43,178.431 -98.546,0 -178.433,-79.886 -178.433,-178.431 0,-98.545 79.887,-178.431467 178.433,-178.431467 98.54,0 178.43,79.886467 178.43,178.431467 z"
             fill="#41454b"
             id="path12" />
          <path
             d="m 1090.41,232.314 -62.49,-62.504 c 6.18,-15.797 2.75,-34.342 -10.3,-47.392 -13.73,-13.737 -34.328,-16.485 -50.807,-8.93 l 29.525,29.535 -20.599,20.606 -30.211,-29.535 c -8.24,16.485 -4.807,37.09 8.926,50.827 13.046,13.05 31.585,16.484 47.376,10.303 l 62.48,62.503 c 2.75,2.749 6.87,2.749 9.62,0 l 15.79,-15.797 c 3.43,-2.749 3.43,-7.556 0.69,-9.616 z"
             stroke="#ffffff"
             id="path14"
             style="fill:none;stroke-width:4" />
          <path
             d="m 1077.61,203.248 v -6.64 l 2.27,-2.353 c 9.58,8.237 22.02,13.195 35.54,13.195 30.16,0 54.61,-24.457 54.61,-54.629 0,-30.173 -24.45,-54.6301 -54.61,-54.6301 -30.16,0 -54.61,24.4571 -54.61,54.6301 0,13.531 4.96,25.97 13.19,35.551 l -2.35,2.269 h -6.64 l -58.61,52.632 12.51,12.523 z m 0,-50.428 c 0,-20.927 16.89,-37.82 37.81,-37.82 20.92,0 37.81,16.893 37.81,37.82 0,20.928 -16.89,37.821 -37.81,37.821 -20.92,0 -37.81,-16.893 -37.81,-37.821 z"
             fill="#ffffff"
             id="path16" />
          <path
             fill-rule="evenodd"
             clip-rule="evenodd"
             d="m 1088.72,162.683 c 0,-0.93 0.56,-1.684 1.26,-1.684 h 7.58 c 0.69,0 1.26,0.754 1.26,1.684 0,0.929 -0.57,1.683 -1.26,1.683 h -7.58 c -0.7,0 -1.26,-0.754 -1.26,-1.683 z"
             fill="#ffffff"
             id="path18" />
          <path
             fill-rule="evenodd"
             clip-rule="evenodd"
             d="m 1088.72,142.483 c 0,-0.93 0.56,-1.683 1.26,-1.683 h 7.58 c 0.69,0 1.26,0.753 1.26,1.683 0,0.93 -0.57,1.683 -1.26,1.683 h -7.58 c -0.7,0 -1.26,-0.753 -1.26,-1.683 z"
             fill="#ffffff"
             id="path20" />
          <path
             fill-rule="evenodd"
             clip-rule="evenodd"
             d="m 1088.72,152.583 c 0,-0.93 0.56,-1.683 1.26,-1.683 h 7.58 c 0.69,0 1.26,0.753 1.26,1.683 0,0.93 -0.57,1.683 -1.26,1.683 h -7.58 c -0.7,0 -1.26,-0.753 -1.26,-1.683 z"
             fill="#ffffff"
             id="path22" />
          <path
             fill-rule="evenodd"
             clip-rule="evenodd"
             d="m 1125.82,135.118 c -0.93,0 -1.69,-0.565 -1.69,-1.262 v -7.575 c 0,-0.697 0.76,-1.262 1.69,-1.262 0.92,0 1.68,0.565 1.68,1.262 v 7.575 c 0,0.697 -0.76,1.262 -1.68,1.262 z"
             fill="#ffffff"
             id="path24" />
          <path
             fill-rule="evenodd"
             clip-rule="evenodd"
             d="m 1105.62,135.118 c -0.93,0 -1.69,-0.565 -1.69,-1.262 v -7.575 c 0,-0.697 0.76,-1.262 1.69,-1.262 0.93,0 1.68,0.565 1.68,1.262 v 7.575 c 0,0.697 -0.75,1.262 -1.68,1.262 z"
             fill="#ffffff"
             id="path26" />
          <path
             fill-rule="evenodd"
             clip-rule="evenodd"
             d="m 1115.72,135.118 c -0.93,0 -1.69,-0.565 -1.69,-1.262 v -7.575 c 0,-0.697 0.76,-1.262 1.69,-1.262 0.93,0 1.68,0.565 1.68,1.262 v 7.575 c 0,0.697 -0.75,1.262 -1.68,1.262 z"
             fill="#ffffff"
             id="path28" />
          <path
             fill-rule="evenodd"
             clip-rule="evenodd"
             d="m 1125.82,180.778 c -0.93,0 -1.69,-0.565 -1.69,-1.262 v -7.575 c 0,-0.697 0.76,-1.263 1.69,-1.263 0.92,0 1.68,0.566 1.68,1.263 v 7.575 c 0,0.697 -0.76,1.262 -1.68,1.262 z"
             fill="#ffffff"
             id="path30" />
          <path
             fill-rule="evenodd"
             clip-rule="evenodd"
             d="m 1105.62,180.778 c -0.93,0 -1.69,-0.565 -1.69,-1.262 v -7.575 c 0,-0.697 0.76,-1.263 1.69,-1.263 0.93,0 1.68,0.566 1.68,1.263 v 7.575 c 0,0.697 -0.75,1.262 -1.68,1.262 z"
             fill="#ffffff"
             id="path32" />
          <path
             fill-rule="evenodd"
             clip-rule="evenodd"
             d="m 1115.72,180.778 c -0.93,0 -1.69,-0.565 -1.69,-1.262 v -7.575 c 0,-0.697 0.76,-1.263 1.69,-1.263 0.93,0 1.68,0.566 1.68,1.263 v 7.575 c 0,0.697 -0.75,1.262 -1.68,1.262 z"
             fill="#ffffff"
             id="path34" />
          <path
             fill-rule="evenodd"
             clip-rule="evenodd"
             d="m 1132.55,162.683 c 0,-0.93 0.56,-1.684 1.26,-1.684 h 7.58 c 0.69,0 1.26,0.754 1.26,1.684 0,0.929 -0.57,1.683 -1.26,1.683 h -7.58 c -0.7,0 -1.26,-0.754 -1.26,-1.683 z"
             fill="#ffffff"
             id="path36" />
          <path
             fill-rule="evenodd"
             clip-rule="evenodd"
             d="m 1132.55,142.483 c 0,-0.93 0.56,-1.683 1.26,-1.683 h 7.58 c 0.69,0 1.26,0.753 1.26,1.683 0,0.93 -0.57,1.683 -1.26,1.683 h -7.58 c -0.7,0 -1.26,-0.753 -1.26,-1.683 z"
             fill="#ffffff"
             id="path38" />
          <path
             fill-rule="evenodd"
             clip-rule="evenodd"
             d="m 1132.55,152.583 c 0,-0.93 0.56,-1.683 1.26,-1.683 h 7.58 c 0.69,0 1.26,0.753 1.26,1.683 0,0.93 -0.57,1.683 -1.26,1.683 h -7.58 c -0.7,0 -1.26,-0.753 -1.26,-1.683 z"
             fill="#ffffff"
             id="path40" />
          <path
             fill-rule="evenodd"
             clip-rule="evenodd"
             d="m 1129.18,135.75 h -26.93 c -1.86,0 -3.37,1.507 -3.37,3.366 v 26.933 c 0,1.86 1.51,3.367 3.37,3.367 h 26.93 c 1.86,0 3.37,-1.507 3.37,-3.367 v -26.933 c 0,-1.859 -1.51,-3.366 -3.37,-3.366 z m -26.93,-3.367 c -3.72,0 -6.73,3.015 -6.73,6.733 v 26.933 c 0,3.719 3.01,6.734 6.73,6.734 h 26.93 c 3.72,0 6.74,-3.015 6.74,-6.734 v -26.933 c 0,-3.718 -3.02,-6.733 -6.74,-6.733 z"
             fill="#ffffff"
             id="path42" />
        </g>
      </g>
    </g>
  </g>
</svg>
