<?xml version="1.0" encoding="utf-8"?>
<!-- Generator: Adobe Illustrator 21.1.0, SVG Export Plug-In . SVG Version: 6.00 Build 0)  -->
<svg version="1.1" xmlns="http://www.w3.org/2000/svg" xmlns:xlink="http://www.w3.org/1999/xlink" x="0px" y="0px"
	 viewBox="0 0 451.7 451.7" style="enable-background:new 0 0 451.7 451.7;" xml:space="preserve">
<style type="text/css">
	.st0{fill:#D1D3D4;}
	.st1{fill:#FFFFFF;stroke:#FFFFFF;stroke-width:3;stroke-linejoin:round;}
	.st2{fill:#99D9EB;}
	.st3{fill:#9ACA3E;}
	.st4{fill:#FFFFFF;}
	.st5{fill:none;stroke:#FFFFFF;stroke-width:8;stroke-miterlimit:10;}
</style>
<g id="guides">
</g>
<g id="logo">
	<g id="gear_2_">
		<g>
			<g>
				<path class="st0" d="M441.3,238.1l10.5-6l0-12.3l-10.5-6.1c-0.3-4.4-0.7-8.8-1.2-13.2l9.3-7.8l-2.1-12.1l-11.4-4.1
					c-1-4.3-2.1-8.6-3.4-12.8l7.7-9.2l-4.2-11.5l-11.9-2.1c-1.8-4.1-3.7-8.1-5.7-12l6-10.5l-6.1-10.6l-12.1,0
					c-2.4-3.7-4.9-7.4-7.6-10.9l4.1-11.3l-7.9-9.4L383,78.1c-3-3.2-6.1-6.3-9.3-9.3l2.1-12l-9.4-7.9L355,53
					c-3.5-2.6-7.2-5.1-10.9-7.6V33.3l-10.6-6.1l-10.5,6c-4-2-7.9-3.9-12-5.7l-2.1-11.9l-11.5-4.2l-9.2,7.7
					c-4.2-1.3-8.5-2.4-12.8-3.4l-4.1-11.4L259,2.4l-7.8,9.3c-4.4-0.5-8.7-0.9-13.2-1.2L232,0h-12.3l-6,10.5
					c-4.4,0.2-8.8,0.7-13.2,1.2l-7.8-9.3l-12.1,2.1l-4.1,11.4c-4.3,1-8.6,2.1-12.8,3.4l-9.2-7.7l-11.5,4.2l-2.1,11.8
					c-4.1,1.8-8.1,3.7-12,5.7l-10.5-6l-10.6,6.2l0,12.1c-3.7,2.4-7.4,4.9-10.9,7.6l-11.3-4.1L76,56.8l2.1,11.9
					c-3.2,3-6.3,6.1-9.3,9.3L56.8,76l-7.9,9.4L53,96.7c-2.6,3.5-5.2,7.2-7.6,10.9H33.3l-6.1,10.7l6,10.5c-2,3.9-3.9,7.9-5.7,12
					l-11.9,2.1l-4.2,11.6l7.7,9.2c-1.3,4.2-2.4,8.5-3.4,12.8l-11.4,4.1l-2.1,12.1l9.3,7.8c-0.5,4.4-0.9,8.8-1.2,13.2l-10.5,6V232
					l10.5,6c0.2,4.4,0.7,8.8,1.2,13.2L2.4,259l2.1,12.1l11.4,4.1c1,4.3,2.1,8.6,3.4,12.8l-7.7,9.2l4.2,11.6l11.9,2.1
					c1.8,4.1,3.7,8.1,5.7,12l-6,10.5l6.2,10.6h12.1c2.4,3.7,4.9,7.3,7.6,10.9l-4.1,11.3l7.9,9.4l12-2.1c3,3.2,6.1,6.3,9.3,9.3
					l-2.1,12l9.4,7.9l11.3-4.1c3.5,2.6,7.2,5.1,10.9,7.6v12.1l10.7,6.1l10.5-6c3.9,2,7.9,3.9,12,5.7l2.1,11.9l11.6,4.2l9.2-7.7
					c4.2,1.3,8.5,2.4,12.8,3.4l4.1,11.4l12.1,2.1l7.8-9.3c4.4,0.5,8.7,0.9,13.2,1.2l6,10.5H232l6-10.5c4.4-0.3,8.8-0.7,13.2-1.2
					l7.8,9.3l12.1-2.1l4.1-11.4c4.3-1,8.6-2.1,12.8-3.4l9.2,7.7l11.6-4.2l2.1-11.9c4.1-1.8,8.1-3.7,12-5.7l10.5,6l10.6-6.1v-12.1
					c3.7-2.4,7.3-4.9,10.9-7.6l11.3,4.1l9.4-7.9l-2.1-12c3.2-3,6.3-6.1,9.3-9.3l12,2.1l7.9-9.4l-4.1-11.3c2.6-3.5,5.1-7.2,7.6-10.9
					h12.1l6.1-10.6l-6-10.5c2-3.9,3.9-7.9,5.7-12l11.9-2.1l4.2-11.6l-7.7-9.2c1.3-4.2,2.4-8.5,3.4-12.8l11.4-4.1l2.1-12.1l-9.3-7.8
					C440.6,246.9,441,242.5,441.3,238.1z M397.3,174.9c-4,8.5-14.1,15.5-26.7,17.2c-9.6,1.3-18.5-0.7-25-4.8l0,1
					c-12.3-39.1-43.1-69.9-82.2-82.2c-4.8-6.9-6.8-17.2-4.5-27.8c2.4-11.3,9-20.1,16.8-24.2C334,70.9,380,116.7,397.3,174.9z
					 M358,225.9c0,6.7-5.5,12.2-12.2,12.2c-6.7,0-12.2-5.4-12.2-12.2c0-6.7,5.5-12.2,12.2-12.2C352.5,213.7,358,219.1,358,225.9z
					 M225.9,358c-6.7,0-12.2-5.5-12.2-12.2c0-6.7,5.4-12.2,12.2-12.2c6.7,0,12.2,5.4,12.2,12.2C238,352.5,232.6,358,225.9,358z
					 M225.9,319.1c-51.5,0-93.2-41.7-93.2-93.2c0-51.5,41.7-93.2,93.2-93.2c51.5,0,93.2,41.7,93.2,93.2S277.3,319.1,225.9,319.1z
					 M225.9,93.8c6.7,0,12.2,5.4,12.2,12.2c0,6.7-5.4,12.2-12.2,12.2c-6.7,0-12.2-5.4-12.2-12.2S219.1,93.8,225.9,93.8z M174.9,54.4
					c8.5,4.1,15.5,14.1,17.2,26.7c1.3,9.6-0.7,18.5-4.8,25l1,0c-39,12.3-69.9,43.1-82.1,82.1l0-1c-6.5,4.2-15.5,6.1-25,4.8
					c-12.6-1.7-22.6-8.6-26.7-17.2C71.6,117.1,117.1,71.6,174.9,54.4z M118.1,225.9c0,6.7-5.4,12.2-12.2,12.2
					c-6.7,0-12.2-5.4-12.2-12.2c0-6.7,5.4-12.2,12.2-12.2C112.6,213.7,118.1,219.1,118.1,225.9z M54.1,275.6
					c4.1-7.8,12.9-14.3,24.2-16.8c10.7-2.3,20.9-0.3,27.8,4.5c12.2,39.1,43.1,70,82.2,82.2l-1,0c4.2,6.5,6.1,15.5,4.8,25
					c-1.7,12.6-8.6,22.6-17.2,26.7C116.7,380,70.9,334,54.1,275.6z M275.6,397.7c-7.8-4.1-14.3-12.9-16.8-24.2
					c-2.3-10.7-0.3-20.9,4.5-27.8c39.1-12.2,70-43.1,82.3-82.3c6.9-4.8,17.2-6.8,27.8-4.5c11.3,2.4,20.1,9,24.2,16.8
					C380.7,334.4,334.4,380.7,275.6,397.7z"/>
				<ellipse id="horizon_1_" class="st1" cx="226.1" cy="225.9" rx="194.8" ry="194.3"/>
			</g>
		</g>
	</g>
	<g id="water_2_">
		<ellipse id="Sea_1_" class="st2" cx="224.4" cy="228.3" rx="179.7" ry="179.3"/>
	</g>
	<g id="land_2_">
		<path class="st3" d="M225.7,42.4C123.5,42.4,41.1,125.3,41.1,227s82.4,184.6,184.6,184.6s184.5-83,184.5-184.6
			S327.8,42.4,225.7,42.4z M244.7,55.8c9.9,1.1,19.5,3.1,28.8,5.8l-28.5,43l-18.4-9.9l-24.3,24.3l-3.7,17.7L170,152.1l1.1,17.3
			l-18.7-4.4l-5.9,23.2l18.7,2.2l19.1-22.5l12.1-0.7l13.6,27.3l9.6-15.8l-16.5-14.7l5.5-1.8l36.8,15.1l21.7-25.4l12.5,15.1
			l-26.5,21.7l3.3,7.7l16.9-1.8l-2.6,12.5l41.2,57.5l31.2-33.5l-36.4-26.2l5.9-5.5h42.6l27.6,41.6l7.7-5.2l-7-65.2l3.3-1.9
			c6.5,18.2,10.1,37.9,10.1,58.4c0,95.4-76.9,172.2-171.3,172.2c-61.3,0-115.2-32.3-145.5-81.1c1.4-6.5,2.7-12.3,2.7-12.3
			l-11.8-19.2L59,267c-3-12.9-4.7-26.3-4.7-40.1c0-36.3,11.1-69.9,30.1-97.5l16.6-2.4l26.5-31l4.1-13c12.4-8.2,25.9-14.8,40.2-19.6
			l5.7,5.7l-43.7,29.5l0.7,5.9l38.2-12.9l23.5-17.3l37.9-4.1l17.3-8.8L244.7,55.8z M173.3,99l-10.7,6.6l11.4,8.8l4-4.4L173.3,99z
			 M180,120.4l-19.8,19.9l10.7,5.5L184,141L180,120.4z M198.7,192.6l-45.2,1.8L115.6,235c0,0-2.2,26.2-2.9,32.8l28.3,35.4l55.9,4.8
			l-2.2,13.6l15.1,18.1l-0.4,23.2l22.4,26.5l29-1.8l40.8-38.7l-4.8-23.6l26.5-34.6l8.1-31l-20.6,12.5l-17.7-13.6l-28.7-50.9
			l-40.1,7.7L198.7,192.6z M327.8,331.6L310.1,347l-7.3,18.4l10.7-3.7L327.8,331.6z"/>
	</g>
	<g id="network">
		<circle class="st4" cx="100.7" cy="189.8" r="24.2"/>
		<circle class="st4" cx="178" cy="228.3" r="24.2"/>
		<circle class="st4" cx="278.3" cy="211.3" r="24.2"/>
		<circle class="st4" cx="332.5" cy="142.2" r="24.2"/>
		<circle class="st4" cx="359.3" cy="269.3" r="24.2"/>
		<path class="st5" d="M358.3,360.8c0,0,29.1-153.9-68.7-312.9"/>
		<path class="st5" d="M69.7,342.7c0,0,221-69.1,292.4-254.6"/>
		<path class="st5" d="M35.4,236c0,0,123.2-124.9,364.6-88.5"/>
		<path class="st5" d="M47.2,151c0,0,147.3,138.2,364,114.7"/>
		<circle class="st4" cx="120" cy="319.7" r="24.2"/>
	</g>
</g>
</svg>
