<?xml version="1.0" encoding="UTF-8" standalone="no"?>
<!-- Created with Inkscape (http://www.inkscape.org/) -->

<svg
   xmlns:dc="http://purl.org/dc/elements/1.1/"
   xmlns:cc="http://creativecommons.org/ns#"
   xmlns:rdf="http://www.w3.org/1999/02/22-rdf-syntax-ns#"
   xmlns:svg="http://www.w3.org/2000/svg"
   xmlns="http://www.w3.org/2000/svg"
   xmlns:sodipodi="http://sodipodi.sourceforge.net/DTD/sodipodi-0.dtd"
   xmlns:inkscape="http://www.inkscape.org/namespaces/inkscape"
   width="52.916668mm"
   height="52.916668mm"
   viewBox="0 0 52.916669 52.916668"
   version="1.1"
   id="svg8"
   inkscape:version="0.92.4 (unknown)"
   sodipodi:docname="logo_fork.svg"
   inkscape:export-filename="/home/kaspar/projects/okh/logo_fork.png"
   inkscape:export-xdpi="192"
   inkscape:export-ydpi="192">
  <defs
     id="defs2">
    <inkscape:path-effect
       effect="spiro"
       id="path-effect1091"
       is_visible="true" />
    <inkscape:path-effect
       effect="spiro"
       id="path-effect1071"
       is_visible="true" />
    <inkscape:path-effect
       effect="spiro"
       id="path-effect1091-7"
       is_visible="true" />
  </defs>
  <sodipodi:namedview
     id="base"
     pagecolor="#ffffff"
     bordercolor="#666666"
     borderopacity="1.0"
     inkscape:pageopacity="0.0"
     inkscape:pageshadow="2"
     inkscape:zoom="0.49497475"
     inkscape:cx="-672.43709"
     inkscape:cy="155.06095"
     inkscape:document-units="mm"
     inkscape:current-layer="g903"
     showgrid="false"
     objecttolerance="1"
     guidetolerance="1"
     fit-margin-top="0"
     fit-margin-left="0"
     fit-margin-right="0"
     fit-margin-bottom="0"
     inkscape:window-width="1366"
     inkscape:window-height="768"
     inkscape:window-x="0"
     inkscape:window-y="0"
     inkscape:window-maximized="0" />
  <metadata
     id="metadata5">
    <rdf:RDF>
      <cc:Work
         rdf:about="">
        <dc:format>image/svg+xml</dc:format>
        <dc:type
           rdf:resource="http://purl.org/dc/dcmitype/StillImage" />
        <dc:title></dc:title>
      </cc:Work>
    </rdf:RDF>
  </metadata>
  <g
     inkscape:label="Layer 1"
     inkscape:groupmode="layer"
     id="layer1"
     transform="translate(4.1444073,-106.53925)">
    <g
       id="g899"
       inkscape:export-xdpi="192"
       inkscape:export-ydpi="192"
       style="fill:#800080;stroke:#ffffff;stroke-width:0.05798893"
       transform="matrix(6.6864852,0,0,6.6864852,-17.548335,-870.93466)"
       inkscape:export-filename="/home/kaspar/projects/okh/logo.png">
      <g
         id="g903"
         transform="translate(0.03340869,-1.2695302)"
         style="stroke:#ffffff;stroke-width:0.05798893">
        <path
           inkscape:export-ydpi="94.879448"
           inkscape:export-xdpi="94.879448"
           id="path884"
           d="M 7.1618112,153.15873 5.0926509,151.08957 C 5.2972931,150.5666 5.183603,149.95267 4.7515805,149.52065 4.2968201,149.06589 3.9821139,148.81949 3.4364013,149.0696 L 4.3641718,150.01736 3.9230141,150.40673 2.9907732,149.42453 2.6547129,149.71763 3.5803154,150.72582 3.209108,151.12519 2.2086348,150.14744 C 1.9357785,150.69316 2.2049219,151.13505 2.6596823,151.58981 3.0917048,152.02183 3.7056314,152.13551 4.2286061,151.93088 L 6.2977663,154.00004 C 6.3887183,154.09099 6.5251465,154.09099 6.6160986,154.00004 L 7.1390731,153.47707 C 7.2527633,153.38611 7.2527633,153.22694 7.1618112,153.15873 Z"
           inkscape:connector-curvature="0"
           style="fill:#b3b3b3;stroke:#ffffff;stroke-width:0.05798893"
           sodipodi:nodetypes="ccccccccccccccccc" />
        <path
           sodipodi:nodetypes="cccssssccccccsssss"
           inkscape:export-ydpi="94.879448"
           inkscape:export-xdpi="94.879448"
           id="path873"
           d="M 6.7381979,152.19652 V 151.97671 L 6.8133229,151.8988 C 7.1305007,152.17147 7.5422894,152.33562 7.9902418,152.33562 8.9890869,152.33562 9.7987411,151.52596 9.7987411,150.52712 9.7987411,149.52828 8.9890869,148.71862 7.9902418,148.71862 6.991387,148.71862 6.1817327,149.52828 6.1817327,150.52712 6.1817327,150.97508 6.3458951,151.38685 6.6185596,151.70405 L 6.5406585,151.77916 H 6.3208568 L 4.379748,153.52153 4.7943025,153.93611 Z M 6.7381979,150.52712 C 6.7381979,149.83433 7.2974393,149.27509 7.9902418,149.27509 8.683034,149.27509 9.2422756,149.83433 9.2422756,150.52712 9.2422756,151.21993 8.683034,151.77916 7.9902418,151.77916 7.2974393,151.77916 6.7381979,151.21993 6.7381979,150.52712 Z"
           inkscape:connector-curvature="0"
           style="fill:#b3b3b3;stroke:#ffffff;stroke-width:0.05798893" />
      </g>
    </g>
  </g>
</svg>
