<?xml version="1.0" encoding="UTF-8" standalone="no"?>
<!-- Created with Inkscape (http://www.inkscape.org/) -->

<svg
   width="104.18938mm"
   height="74.184746mm"
   viewBox="0 0 104.18938 74.184746"
   version="1.1"
   id="svg8404"
   sodipodi:docname="IOP-EC-writing-as-font.svg"
   inkscape:version="1.1.2 (0a00cf5339, 2022-02-04)"
   xmlns:inkscape="http://www.inkscape.org/namespaces/inkscape"
   xmlns:sodipodi="http://sodipodi.sourceforge.net/DTD/sodipodi-0.dtd"
   xmlns="http://www.w3.org/2000/svg"
   xmlns:svg="http://www.w3.org/2000/svg">
  <sodipodi:namedview
     id="namedview8406"
     pagecolor="#ffffff"
     bordercolor="#666666"
     borderopacity="1.0"
     inkscape:pageshadow="2"
     inkscape:pageopacity="0.0"
     inkscape:pagecheckerboard="0"
     inkscape:document-units="mm"
     showgrid="false"
     lock-margins="true"
     inkscape:zoom="1.6895256"
     inkscape:cx="123.11148"
     inkscape:cy="237.34473"
     inkscape:window-width="1920"
     inkscape:window-height="1063"
     inkscape:window-x="0"
     inkscape:window-y="17"
     inkscape:window-maximized="1"
     inkscape:current-layer="layer1"
     inkscape:snap-to-guides="false"
     fit-margin-top="3.5"
     fit-margin-left="3.5"
     fit-margin-right="3.5"
     fit-margin-bottom="3.5" />
  <defs
     id="defs8401" />
  <g
     inkscape:label="Layer 1"
     inkscape:groupmode="layer"
     id="layer1"
     transform="translate(-49.788789,-45.944413)">
    <text
       xml:space="preserve"
       style="font-style:italic;font-variant:normal;font-weight:normal;font-stretch:normal;font-size:7.05556px;line-height:100%;font-family:Roboto;-inkscape-font-specification:'Roboto Italic';letter-spacing:0px;word-spacing:0px;fill:#808080;stroke-width:1"
       x="66.123131"
       y="115.1132"
       id="text1027-6"><tspan
         sodipodi:role="line"
         id="tspan1025-1"
         x="66.123131"
         y="115.1132"
         style="font-style:italic;font-variant:normal;font-weight:normal;font-stretch:normal;font-size:7.05556px;font-family:Roboto;-inkscape-font-specification:'Roboto Italic';fill:#808080;stroke-width:1">Electronic Components</tspan></text>
    <text
       xml:space="preserve"
       style="font-style:normal;font-variant:normal;font-weight:bold;font-stretch:normal;font-size:10.2306px;line-height:100%;font-family:Roboto;-inkscape-font-specification:'Roboto Bold';letter-spacing:0px;word-spacing:0px;fill:#4d4d4d;stroke-width:1"
       x="85.143883"
       y="104.48736"
       id="text1027-35"><tspan
         sodipodi:role="line"
         id="tspan1025-62"
         x="85.143883"
         y="104.48736"
         style="font-style:normal;font-variant:normal;font-weight:bold;font-stretch:normal;font-size:10.2306px;font-family:Roboto;-inkscape-font-specification:'Roboto Bold';fill:#4d4d4d;stroke-width:1">IOP-EC</tspan></text>
    <text
       xml:space="preserve"
       style="font-style:normal;font-weight:normal;font-size:10.5833px;line-height:1.25;font-family:sans-serif;letter-spacing:0px;word-spacing:0px;fill:#000000;fill-opacity:1;stroke:none;stroke-width:0.264583"
       x="149.84872"
       y="117.59502"
       id="text19708"><tspan
         sodipodi:role="line"
         id="tspan19706"
         style="stroke-width:0.264583"></tspan></text>
    <g
       id="g22241"
       transform="matrix(0.26458333,0,0,0.26458333,-176.9756,-222.72994)">
      <path
         d="m 1089.43,1161.56 -61.83,-61.86 c 6.11,-15.63 2.71,-33.99 -10.2,-46.9 -13.59,-13.6 -33.975,-16.32 -50.284,-8.84 l 29.22,29.23 -20.386,20.39 -29.899,-29.23 c -8.155,16.32 -4.757,36.71 8.834,50.31 12.911,12.91 31.258,16.31 46.885,10.19 l 61.84,61.86 c 2.72,2.72 6.8,2.72 9.51,0 l 15.63,-15.63 c 3.4,-2.72 3.4,-7.48 0.68,-9.52 z"
         stroke="#41454b"
         id="path262"
         style="fill:none;stroke-width:4" />
      <path
         d="m 1076.77,1132.79 v -6.57 l 2.25,-2.33 c 9.48,8.15 21.78,13.06 35.17,13.06 29.85,0 54.05,-24.2 54.05,-54.06 0,-29.86 -24.2,-54.07 -54.05,-54.07 -29.85,0 -54.05,24.21 -54.05,54.07 0,13.39 4.91,25.7 13.06,35.18 l -2.33,2.25 h -6.57 l -58.01,52.09 12.39,12.39 z m 0,-49.9 c 0,-20.71 16.72,-37.43 37.42,-37.43 20.71,0 37.42,16.72 37.42,37.43 0,20.71 -16.71,37.43 -37.42,37.43 -20.7,0 -37.42,-16.72 -37.42,-37.43 z"
         fill="#41454b"
         id="path264" />
      <path
         fill-rule="evenodd"
         clip-rule="evenodd"
         d="m 1087.76,1092.65 c 0,-0.92 0.56,-1.67 1.25,-1.67 h 7.5 c 0.69,0 1.25,0.75 1.25,1.67 0,0.92 -0.56,1.66 -1.25,1.66 h -7.5 c -0.69,0 -1.25,-0.74 -1.25,-1.66 z"
         fill="#41454b"
         id="path266" />
      <path
         fill-rule="evenodd"
         clip-rule="evenodd"
         d="m 1087.76,1072.66 c 0,-0.92 0.56,-1.67 1.25,-1.67 h 7.5 c 0.69,0 1.25,0.75 1.25,1.67 0,0.92 -0.56,1.66 -1.25,1.66 h -7.5 c -0.69,0 -1.25,-0.74 -1.25,-1.66 z"
         fill="#41454b"
         id="path268" />
      <path
         fill-rule="evenodd"
         clip-rule="evenodd"
         d="m 1087.76,1082.65 c 0,-0.92 0.56,-1.66 1.25,-1.66 h 7.5 c 0.69,0 1.25,0.74 1.25,1.66 0,0.92 -0.56,1.67 -1.25,1.67 h -7.5 c -0.69,0 -1.25,-0.75 -1.25,-1.67 z"
         fill="#41454b"
         id="path270" />
      <path
         fill-rule="evenodd"
         clip-rule="evenodd"
         d="m 1124.48,1065.37 c -0.92,0 -1.67,-0.56 -1.67,-1.25 v -7.5 c 0,-0.69 0.75,-1.25 1.67,-1.25 0.92,0 1.66,0.56 1.66,1.25 v 7.5 c 0,0.69 -0.74,1.25 -1.66,1.25 z"
         fill="#41454b"
         id="path272" />
      <path
         fill-rule="evenodd"
         clip-rule="evenodd"
         d="m 1104.49,1065.37 c -0.93,0 -1.67,-0.56 -1.67,-1.25 v -7.5 c 0,-0.69 0.74,-1.25 1.67,-1.25 0.92,0 1.66,0.56 1.66,1.25 v 7.5 c 0,0.69 -0.74,1.25 -1.66,1.25 z"
         fill="#41454b"
         id="path274" />
      <path
         fill-rule="evenodd"
         clip-rule="evenodd"
         d="m 1114.48,1065.37 c -0.92,0 -1.67,-0.56 -1.67,-1.25 v -7.5 c 0,-0.69 0.75,-1.25 1.67,-1.25 0.92,0 1.67,0.56 1.67,1.25 v 7.5 c 0,0.69 -0.75,1.25 -1.67,1.25 z"
         fill="#41454b"
         id="path276" />
      <path
         fill-rule="evenodd"
         clip-rule="evenodd"
         d="m 1124.48,1110.56 c -0.92,0 -1.67,-0.56 -1.67,-1.25 v -7.5 c 0,-0.69 0.75,-1.25 1.67,-1.25 0.92,0 1.66,0.56 1.66,1.25 v 7.5 c 0,0.69 -0.74,1.25 -1.66,1.25 z"
         fill="#41454b"
         id="path278" />
      <path
         fill-rule="evenodd"
         clip-rule="evenodd"
         d="m 1104.49,1110.56 c -0.93,0 -1.67,-0.56 -1.67,-1.25 v -7.5 c 0,-0.69 0.74,-1.25 1.67,-1.25 0.92,0 1.66,0.56 1.66,1.25 v 7.5 c 0,0.69 -0.74,1.25 -1.66,1.25 z"
         fill="#41454b"
         id="path280" />
      <path
         fill-rule="evenodd"
         clip-rule="evenodd"
         d="m 1114.48,1110.56 c -0.92,0 -1.67,-0.56 -1.67,-1.25 v -7.5 c 0,-0.69 0.75,-1.25 1.67,-1.25 0.92,0 1.67,0.56 1.67,1.25 v 7.5 c 0,0.69 -0.75,1.25 -1.67,1.25 z"
         fill="#41454b"
         id="path282" />
      <path
         fill-rule="evenodd"
         clip-rule="evenodd"
         d="m 1131.14,1092.65 c 0,-0.92 0.56,-1.67 1.25,-1.67 h 7.5 c 0.69,0 1.25,0.75 1.25,1.67 0,0.92 -0.56,1.66 -1.25,1.66 h -7.5 c -0.69,0 -1.25,-0.74 -1.25,-1.66 z"
         fill="#41454b"
         id="path284" />
      <path
         fill-rule="evenodd"
         clip-rule="evenodd"
         d="m 1131.14,1072.66 c 0,-0.92 0.56,-1.67 1.25,-1.67 h 7.5 c 0.69,0 1.25,0.75 1.25,1.67 0,0.92 -0.56,1.66 -1.25,1.66 h -7.5 c -0.69,0 -1.25,-0.74 -1.25,-1.66 z"
         fill="#41454b"
         id="path286" />
      <path
         fill-rule="evenodd"
         clip-rule="evenodd"
         d="m 1131.14,1082.65 c 0,-0.92 0.56,-1.66 1.25,-1.66 h 7.5 c 0.69,0 1.25,0.74 1.25,1.66 0,0.92 -0.56,1.67 -1.25,1.67 h -7.5 c -0.69,0 -1.25,-0.75 -1.25,-1.67 z"
         fill="#41454b"
         id="path288" />
      <path
         fill-rule="evenodd"
         clip-rule="evenodd"
         d="m 1127.81,1065.99 h -26.66 c -1.84,0 -3.33,1.49 -3.33,3.33 v 26.66 c 0,1.84 1.49,3.33 3.33,3.33 h 26.66 c 1.84,0 3.33,-1.49 3.33,-3.33 v -26.66 c 0,-1.84 -1.49,-3.33 -3.33,-3.33 z m -26.66,-3.33 c -3.68,0 -6.66,2.98 -6.66,6.66 v 26.66 c 0,3.68 2.98,6.66 6.66,6.66 h 26.66 c 3.68,0 6.66,-2.98 6.66,-6.66 v -26.66 c 0,-3.68 -2.98,-6.66 -6.66,-6.66 z"
         fill="#41454b"
         id="path290" />
    </g>
  </g>
</svg>
