<?xml version="1.0" encoding="UTF-8" standalone="no"?>
<!-- Created with Inkscape (http://www.inkscape.org/) -->

<svg
   width="104.18938mm"
   height="74.184746mm"
   viewBox="0 0 104.18938 74.184746"
   version="1.1"
   id="svg8404"
   sodipodi:docname="IOP-OKW.svg"
   inkscape:version="1.1.2 (0a00cf5339, 2022-02-04)"
   xmlns:inkscape="http://www.inkscape.org/namespaces/inkscape"
   xmlns:sodipodi="http://sodipodi.sourceforge.net/DTD/sodipodi-0.dtd"
   xmlns="http://www.w3.org/2000/svg"
   xmlns:svg="http://www.w3.org/2000/svg">
  <sodipodi:namedview
     id="namedview8406"
     pagecolor="#ffffff"
     bordercolor="#666666"
     borderopacity="1.0"
     inkscape:pageshadow="2"
     inkscape:pageopacity="0.0"
     inkscape:pagecheckerboard="0"
     inkscape:document-units="mm"
     showgrid="false"
     lock-margins="true"
     inkscape:zoom="1.6895256"
     inkscape:cx="121.33583"
     inkscape:cy="237.34473"
     inkscape:window-width="1920"
     inkscape:window-height="1063"
     inkscape:window-x="0"
     inkscape:window-y="17"
     inkscape:window-maximized="1"
     inkscape:current-layer="layer1"
     inkscape:snap-to-guides="false"
     fit-margin-top="3.5"
     fit-margin-left="3.5"
     fit-margin-right="3.5"
     fit-margin-bottom="3.5" />
  <defs
     id="defs8401" />
  <g
     inkscape:label="Layer 1"
     inkscape:groupmode="layer"
     id="layer1"
     transform="translate(-49.788789,-45.944413)">
    <g
       aria-label="Open Know-Where"
       id="text1027-6"
       style="font-style:italic;font-size:7.05556px;line-height:100%;font-family:Roboto;-inkscape-font-specification:'Roboto Italic';letter-spacing:0px;word-spacing:0px;fill:#808080">
      <path
         d="m 75.595731,115.1821 q -0.478869,-0.0103 -0.833714,-0.23082 -0.3514,-0.22049 -0.554661,-0.64768 -0.20326,-0.43064 -0.223931,-0.96463 -0.02067,-0.41685 0.09302,-1.03008 0.113688,-0.61323 0.392741,-1.10588 0.279053,-0.49265 0.678684,-0.78893 0.54088,-0.39963 1.233345,-0.38585 0.733806,0.0138 1.157553,0.50988 0.423747,0.49265 0.454753,1.3367 0.01378,0.36173 -0.07579,0.91984 -0.08613,0.5581 -0.313504,1.03697 -0.223932,0.47887 -0.571887,0.80271 -0.606337,0.56499 -1.436605,0.54777 z m 1.760445,-3.14882 q 0.02067,-0.67868 -0.237712,-1.05075 -0.258382,-0.37552 -0.768257,-0.3893 -0.461643,-0.0138 -0.826823,0.24805 -0.361736,0.26182 -0.596002,0.78548 -0.230822,0.52021 -0.292834,1.31947 l -0.01033,0.22393 q -0.02067,0.67524 0.241157,1.05765 0.261827,0.3824 0.761367,0.39618 0.651123,0.0172 1.078315,-0.46853 0.430637,-0.4892 0.571886,-1.37115 0.0689,-0.43408 0.07924,-0.75103 z"
         id="path22129" />
      <path
         d="m 81.776236,113.26662 q -0.0689,0.56845 -0.306613,1.0232 -0.237712,0.45475 -0.589112,0.68213 -0.3514,0.22393 -0.778592,0.21359 -0.647679,-0.0138 -0.992188,-0.43752 l -0.334175,1.79834 h -0.623563 l 0.895726,-5.16076 0.564996,-0.003 -0.0689,0.41685 q 0.461643,-0.49609 1.105876,-0.48231 0.537436,0.0138 0.837159,0.39619 0.299724,0.3824 0.316949,1.0542 0.0034,0.22048 -0.01722,0.42719 z m -0.613227,-0.0723 0.01722,-0.28939 q 0,-0.50298 -0.192925,-0.76826 -0.189481,-0.26871 -0.551216,-0.2825 -0.54088,-0.0138 -0.933621,0.51332 l -0.313504,1.78801 q 0.210151,0.49609 0.754476,0.50987 0.465088,0.0103 0.788928,-0.36173 0.327284,-0.37552 0.430637,-1.10932 z"
         id="path22131" />
      <path
         d="m 83.888081,115.1821 q -0.695909,-0.0138 -1.08865,-0.51332 -0.392742,-0.49954 -0.33073,-1.27813 l 0.01723,-0.14814 q 0.05857,-0.55466 0.327284,-1.01286 0.272163,-0.4582 0.661459,-0.68902 0.389296,-0.23427 0.840604,-0.22393 0.575331,0.0138 0.902615,0.38241 0.327284,0.36862 0.35829,0.99907 0.01034,0.22394 -0.01378,0.44787 l -0.0379,0.28594 h -2.435684 q -0.06201,0.50643 0.165365,0.86127 0.230821,0.35485 0.685574,0.36863 0.551216,0.0138 1.019749,-0.49609 l 0.35829,0.30316 q -0.234267,0.33762 -0.606337,0.53055 -0.368626,0.18948 -0.823379,0.18259 z m 0.396187,-3.34519 q -0.385851,-0.0103 -0.675239,0.26183 -0.285944,0.27216 -0.454753,0.80959 l 1.812121,0.003 0.01378,-0.0551 q 0.05512,-0.43408 -0.141249,-0.72003 -0.192925,-0.28939 -0.55466,-0.29972 z"
         id="path22133" />
      <path
         d="m 87.171259,111.38216 -0.08957,0.47197 q 0.502984,-0.55121 1.143772,-0.53743 0.5271,0.0138 0.778592,0.36518 0.251492,0.3514 0.186035,0.98874 l -0.406521,2.44258 h -0.623563 l 0.409967,-2.45291 q 0.02067,-0.16881 0.0034,-0.31351 -0.05857,-0.48231 -0.568441,-0.49265 -0.561551,-0.0103 -0.985298,0.59945 l -0.461643,2.65962 h -0.623563 l 0.647678,-3.7276 z"
         id="path22135" />
      <path
         d="m 93.241521,112.78776 -0.733806,0.65801 -0.289388,1.66743 h -0.647678 l 0.871609,-5.01606 h 0.647679 l -0.427192,2.44257 2.556262,-2.44257 h 0.833714 l -2.332331,2.2462 1.560629,2.76986 h -0.720026 z"
         id="path22137" />
      <path
         d="m 96.955336,111.38216 -0.08957,0.47197 q 0.502985,-0.55121 1.143773,-0.53743 0.5271,0.0138 0.778592,0.36518 0.251492,0.3514 0.186035,0.98874 l -0.406521,2.44258 h -0.623563 l 0.409967,-2.45291 q 0.02067,-0.16881 0.0034,-0.31351 -0.05857,-0.48231 -0.568442,-0.49265 -0.56155,-0.0103 -0.985297,0.59945 l -0.461644,2.65962 h -0.623562 l 0.647678,-3.7276 z"
         id="path22139" />
      <path
         d="m 101.59933,111.3167 q 0.46853,0.007 0.80271,0.25494 0.33417,0.24804 0.49265,0.68557 0.16192,0.43408 0.11024,0.95085 l -0.007,0.0758 q -0.0655,0.54433 -0.32384,0.9853 -0.25838,0.43753 -0.66835,0.68213 -0.40997,0.2446 -0.89917,0.23082 -0.46509,-0.007 -0.80271,-0.25494 -0.334172,-0.24804 -0.489201,-0.67524 -0.15503,-0.42719 -0.110243,-0.94051 0.05168,-0.57878 0.313504,-1.04042 0.26183,-0.46164 0.67179,-0.71313 0.41342,-0.25494 0.90951,-0.24116 z m -1.2678,1.99816 q -0.0241,0.21704 0,0.4513 0.0344,0.40653 0.24116,0.64768 0.21015,0.24116 0.55811,0.25149 0.31005,0.0103 0.57188,-0.15158 0.26183,-0.16536 0.44097,-0.49609 0.17915,-0.33073 0.23083,-0.73381 0.0276,-0.31695 0.0103,-0.53399 -0.0413,-0.41686 -0.25149,-0.65801 -0.21015,-0.24116 -0.55811,-0.25494 -0.48231,-0.0103 -0.81993,0.37896 -0.33762,0.3893 -0.41686,1.01975 z"
         id="path22141" />
      <path
         d="m 106.81176,114.23125 1.18856,-2.84565 h 0.64423 l -1.69843,3.7276 h -0.50643 l -0.38585,-2.81809 -1.34359,2.81809 h -0.50643 l -0.40307,-3.7276 h 0.596 l 0.22737,2.77675 1.32292,-2.77675 h 0.50299 z"
         id="path22143" />
      <path
         d="m 110.2603,113.24251 h -1.63642 l 0.093,-0.52021 h 1.63642 z"
         id="path22145" />
      <path
         d="m 111.99663,113.56635 -0.0138,0.60634 0.23427,-0.59256 1.49862,-3.48299 h 0.54777 l 0.39619,3.52778 0.0344,0.57188 0.21704,-0.69246 1.28157,-3.4072 h 0.66491 l -1.96371,5.01606 h -0.58911 l -0.43408,-3.68281 -0.0138,-0.34451 -0.1447,0.39963 -1.59852,3.62769 h -0.58911 l -0.39274,-5.01606 h 0.63045 z"
         id="path22147" />
      <path
         d="m 117.83608,111.84035 q 0.4892,-0.53399 1.12654,-0.52021 0.52366,0.007 0.77515,0.36174 0.25494,0.3514 0.18948,0.98874 l -0.40652,2.44258 h -0.62356 l 0.40996,-2.45291 q 0.0207,-0.16881 0.003,-0.31351 -0.0586,-0.48231 -0.56844,-0.49265 -0.57189,-0.0138 -0.9853,0.59945 l -0.46164,2.65962 h -0.62357 l 0.91984,-5.29167 h 0.62357 z"
         id="path22149" />
      <path
         d="m 122.08733,115.1821 q -0.69591,-0.0138 -1.08866,-0.51332 -0.39274,-0.49954 -0.33073,-1.27813 l 0.0172,-0.14814 q 0.0586,-0.55466 0.32728,-1.01286 0.27217,-0.4582 0.66146,-0.68902 0.3893,-0.23427 0.84061,-0.22393 0.57533,0.0138 0.90261,0.38241 0.32729,0.36862 0.35829,0.99907 0.0103,0.22394 -0.0138,0.44787 l -0.0379,0.28594 h -2.43569 q -0.062,0.50643 0.16537,0.86127 0.23082,0.35485 0.68557,0.36863 0.55122,0.0138 1.01975,-0.49609 l 0.35829,0.30316 q -0.23427,0.33762 -0.60634,0.53055 -0.36862,0.18948 -0.82337,0.18259 z m 0.39618,-3.34519 q -0.38585,-0.0103 -0.67524,0.26183 -0.28594,0.27216 -0.45475,0.80959 l 1.81212,0.003 0.0138,-0.0551 q 0.0551,-0.43408 -0.14125,-0.72003 -0.19292,-0.28939 -0.55466,-0.29972 z"
         id="path22151" />
      <path
         d="m 126.45227,111.95404 -0.29284,-0.031 q -0.59945,0 -0.94395,0.54088 l -0.4582,2.64928 h -0.62357 l 0.64768,-3.7276 0.6029,-0.003 -0.093,0.43408 q 0.39618,-0.52021 0.93362,-0.50643 0.11369,0 0.29628,0.0517 z"
         id="path22153" />
      <path
         d="m 128.09558,115.1821 q -0.69591,-0.0138 -1.08865,-0.51332 -0.39275,-0.49954 -0.33073,-1.27813 l 0.0172,-0.14814 q 0.0586,-0.55466 0.32729,-1.01286 0.27216,-0.4582 0.66145,-0.68902 0.3893,-0.23427 0.84061,-0.22393 0.57533,0.0138 0.90261,0.38241 0.32729,0.36862 0.35829,0.99907 0.0103,0.22394 -0.0138,0.44787 l -0.0379,0.28594 h -2.43569 q -0.062,0.50643 0.16537,0.86127 0.23082,0.35485 0.68557,0.36863 0.55122,0.0138 1.01975,-0.49609 l 0.35829,0.30316 q -0.23426,0.33762 -0.60634,0.53055 -0.36862,0.18948 -0.82337,0.18259 z m 0.39618,-3.34519 q -0.38585,-0.0103 -0.67524,0.26183 -0.28594,0.27216 -0.45475,0.80959 l 1.81212,0.003 0.0138,-0.0551 q 0.0551,-0.43408 -0.14125,-0.72003 -0.19292,-0.28939 -0.55466,-0.29972 z"
         id="path22155" />
    </g>
    <g
       aria-label="IOP-OKW"
       id="text1027-35"
       style="font-weight:bold;font-size:10.2306px;line-height:100%;font-family:Roboto;-inkscape-font-specification:'Roboto Bold';letter-spacing:0px;word-spacing:0px;fill:#4d4d4d">
      <path
         d="m 82.276524,104.48736 h -1.498623 v -7.273319 h 1.498623 z"
         id="path22114" />
      <path
         d="m 89.639759,101.01555 q 0,1.07401 -0.379652,1.88327 -0.379651,0.80925 -1.088999,1.24885 -0.704353,0.4396 -1.618513,0.4396 -0.904169,0 -1.613517,-0.4346 -0.709349,-0.43461 -1.098991,-1.23887 -0.389642,-0.80925 -0.394637,-1.85829 v -0.35967 q 0,-1.074012 0.384646,-1.888263 0.389642,-0.819248 1.093995,-1.253848 0.709349,-0.439597 1.618513,-0.439597 0.909165,0 1.613518,0.439597 0.709348,0.4346 1.093995,1.253848 0.389642,0.814251 0.389642,1.883273 z m -1.518605,-0.3297 q 0,-1.143948 -0.409624,-1.738402 -0.409623,-0.594454 -1.168926,-0.594454 -0.754307,0 -1.16393,0.589459 -0.409624,0.584463 -0.414619,1.718417 v 0.35468 q 0,1.11397 0.409623,1.72841 0.409624,0.61444 1.178917,0.61444 0.754307,0 1.158935,-0.58946 0.404629,-0.59446 0.409624,-1.72842 z"
         id="path22116" />
      <path
         d="m 92.227382,101.92471 v 2.56265 h -1.498623 v -7.273319 h 2.837393 q 0.819247,0 1.438678,0.299724 0.624426,0.299725 0.959119,0.854215 0.334692,0.549496 0.334692,1.253848 0,1.069022 -0.734325,1.688452 -0.72933,0.61443 -2.023141,0.61443 z m 0,-1.21388 h 1.33877 q 0.594453,0 0.904169,-0.27975 0.314711,-0.27974 0.314711,-0.799261 0,-0.534509 -0.314711,-0.864206 -0.314711,-0.329697 -0.869201,-0.339688 h -1.373738 z"
         id="path22118" />
      <path
         d="m 100.0402,101.95469 h -2.812414 v -1.16394 h 2.812414 z"
         id="path22120" />
      <path
         d="m 107.26856,101.01555 q 0,1.07401 -0.37965,1.88327 -0.37965,0.80925 -1.089,1.24885 -0.70435,0.4396 -1.61851,0.4396 -0.90417,0 -1.61352,-0.4346 -0.70935,-0.43461 -1.09899,-1.23887 -0.38964,-0.80925 -0.39464,-1.85829 v -0.35967 q 0,-1.074012 0.38465,-1.888263 0.38964,-0.819248 1.09399,-1.253848 0.70935,-0.439597 1.61852,-0.439597 0.90916,0 1.61351,0.439597 0.70935,0.4346 1.094,1.253848 0.38964,0.814251 0.38964,1.883273 z m -1.5186,-0.3297 q 0,-1.143948 -0.40963,-1.738402 -0.40962,-0.594454 -1.16892,-0.594454 -0.75431,0 -1.16393,0.589459 -0.40963,0.584463 -0.41462,1.718417 v 0.35468 q 0,1.11397 0.40962,1.72841 0.40962,0.61444 1.17892,0.61444 0.75431,0 1.15893,-0.58946 0.40463,-0.59446 0.40963,-1.72842 z"
         id="path22122" />
      <path
         d="m 110.63547,101.57004 -0.77929,0.83923 v 2.07809 h -1.49862 v -7.273319 h 1.49862 v 3.296969 l 0.6594,-0.904168 1.8533,-2.392801 h 1.8433 l -2.58262,3.232029 2.65755,4.04129 h -1.78336 z"
         id="path22124" />
      <path
         d="m 120.51639,102.38929 0.9791,-5.175249 h 1.49363 l -1.61352,7.273319 h -1.50861 l -1.18392,-4.865532 -1.18391,4.865532 h -1.50861 l -1.61352,-7.273319 h 1.49363 l 0.98409,5.165249 1.1989,-5.165249 h 1.26884 z"
         id="path22126" />
    </g>
    <g
       id="g12870"
       transform="matrix(0.26458333,0,0,0.26458333,-66.039996,-222.72989)">
      <path
         d="m 694.6733,1055.2917 c -15.09188,0 -27.55948,12.4925 -27.55948,27.6158 0,15.1233 12.4676,27.6158 27.55948,27.6158 15.09189,0 27.55818,-12.4925 27.55818,-27.6158 0,-15.1233 -12.46629,-27.6158 -27.55818,-27.6158 z m -1.64033,14.4656 c -2.95313,-0.1651 -5.90626,-0.6577 -8.53054,-1.3154 2.13296,-5.0953 5.08609,-8.5476 8.53054,-9.3691 z m 0,3.2872 v 8.22 h -11.15481 c 0.16377,-3.4523 0.65639,-6.7395 1.47656,-9.6992 2.95182,0.8228 6.2338,1.3154 9.67825,1.4792 z m 3.28067,0.1651 c 3.44445,0 6.72512,-0.4926 9.84202,-1.1503 0.82017,2.7946 1.31279,5.918 1.47656,9.369 h -11.31858 z m 0,-3.2872 v -10.8496 c 3.60822,0.8215 6.72512,4.6027 8.69431,9.6992 -2.78936,0.6564 -5.74118,0.9853 -8.69431,1.1504 z m -15.09188,-2.4658 c -1.31279,-0.4939 -2.4605,-1.1503 -3.60822,-1.808 2.13166,-2.1369 4.75724,-3.9449 7.54529,-5.0966 -1.47656,1.8081 -2.78805,4.11 -3.93707,6.9046 z m -0.98394,2.9584 c -0.98394,3.2872 -1.47656,6.9046 -1.64034,10.8495 h -8.03791 c 0.32755,-4.9314 2.13166,-9.3703 4.92101,-13.1502 1.47657,0.9853 2.95313,1.643 4.75724,2.3007 z m -1.64034,14.1368 c 0.16378,3.7811 0.6564,7.2334 1.64034,10.5207 -1.80411,0.6577 -3.44575,1.4791 -4.92101,2.3006 -2.62558,-3.6161 -4.42969,-8.0536 -4.75724,-12.8213 z m 3.28068,0 h 11.15481 v 8.0549 c -3.44445,0.1651 -6.72643,0.4926 -9.67825,1.3154 -0.82017,-2.7946 -1.47656,-5.918 -1.47656,-9.3703 z m 11.15481,11.3421 v 10.8496 c -3.44445,-0.8228 -6.56135,-4.4389 -8.69431,-9.5342 2.78805,-0.6577 5.74118,-1.1503 8.69431,-1.3154 z m 3.28067,10.8496 v -10.8496 c 2.95313,0.1651 5.90495,0.494 8.69431,1.1504 -2.13296,5.2603 -5.24986,8.8764 -8.69431,9.6992 z m 0,-14.1368 v -8.0549 h 11.15481 c -0.16508,3.4523 -0.65639,6.5757 -1.47656,9.5341 -2.95313,-0.8215 -6.2338,-1.3154 -9.67825,-1.4792 z m 14.43548,-8.0549 h 8.03792 c -0.32755,4.7677 -1.96788,9.2052 -4.75724,12.8213 -1.47657,-0.8215 -3.1169,-1.6429 -4.92101,-2.3006 0.98394,-3.2873 1.64033,-6.7396 1.64033,-10.5207 z m 0,-3.2873 c -0.16377,-3.616 -0.65639,-7.0683 -1.47656,-10.1918 1.80411,-0.6577 3.60953,-1.3154 5.08478,-2.1369 2.46182,3.6161 4.10215,7.8899 4.4297,12.4925 h -8.03792 z m 1.47657,-14.9582 c -1.31279,0.6564 -2.62428,1.1503 -3.93707,1.643 -1.14902,-2.9584 -2.4605,-5.4242 -4.26461,-7.3973 3.11559,1.3154 5.90495,3.2886 8.20168,5.7543 z m -34.941,33.5326 c 1.14902,-0.6577 2.46051,-1.1504 3.7733,-1.643 1.14771,2.7946 2.4605,5.2603 4.10084,7.0684 -2.95313,-1.3154 -5.57741,-3.1235 -7.87414,-5.4254 z m 26.73932,5.4254 c 1.64033,-1.9731 2.95182,-4.2738 4.10084,-7.0684 1.31148,0.4926 2.62427,0.9853 3.77199,1.643 -2.13165,2.3019 -4.75724,4.11 -7.87283,5.4254 z"
         fill="#ffffff"
         id="path80-3-6"
         sodipodi:nodetypes="sssssccccccccccccccccccccccccccccccccccccccccccccccccccccccccccccccccccccccccc"
         style="fill:#41454b;stroke-width:1.31017" />
      <g
         id="g12156">
        <path
           d="m 670.15,1161.56 -61.838,-61.86 c 6.116,-15.63 2.718,-33.99 -10.193,-46.9 -13.591,-13.6 -33.977,-16.32 -50.286,-8.84 l 29.22,29.23 -20.386,20.39 -29.9,-29.23 c -8.154,16.32 -4.756,36.71 8.834,50.31 12.912,12.91 31.259,16.31 46.888,10.19 l 61.838,61.86 c 2.718,2.72 6.796,2.72 9.514,0 l 15.629,-15.63 c 3.398,-2.72 3.398,-7.48 0.68,-9.52 z"
           stroke="#41454b"
           id="path214"
           style="fill:none;stroke-width:4" />
        <path
           d="m 657.49,1132.79 v -6.57 l 2.245,-2.33 c 9.479,8.15 21.785,13.06 35.172,13.06 29.851,0 54.048,-24.2 54.048,-54.06 0,-29.86 -24.197,-54.07 -54.048,-54.07 -29.851,0 -54.048,24.21 -54.048,54.07 0,13.39 4.906,25.7 13.055,35.18 l -2.328,2.25 h -6.569 l -58.011,52.09 12.389,12.39 z m 0,-49.9 c 0,-20.71 16.713,-37.43 37.417,-37.43 20.705,0 37.418,16.72 37.418,37.43 0,20.71 -16.713,37.43 -37.418,37.43 -20.704,0 -37.417,-16.72 -37.417,-37.43 z"
           fill="#41454b"
           id="path216" />
      </g>
    </g>
    <text
       xml:space="preserve"
       style="font-style:normal;font-weight:normal;font-size:10.5833px;line-height:1.25;font-family:sans-serif;letter-spacing:0px;word-spacing:0px;fill:#000000;fill-opacity:1;stroke:none;stroke-width:0.264583"
       x="149.84872"
       y="117.59502"
       id="text19708"><tspan
         sodipodi:role="line"
         id="tspan19706"
         style="stroke-width:0.264583"></tspan></text>
  </g>
</svg>
