<?xml version="1.0" encoding="UTF-8" standalone="no"?>
<!-- Created with Inkscape (http://www.inkscape.org/) -->

<svg
   width="104.18938mm"
   height="74.184746mm"
   viewBox="0 0 104.18938 74.184746"
   version="1.1"
   id="svg8404"
   sodipodi:docname="IOP-EC.svg"
   inkscape:version="1.1.2 (0a00cf5339, 2022-02-04)"
   xmlns:inkscape="http://www.inkscape.org/namespaces/inkscape"
   xmlns:sodipodi="http://sodipodi.sourceforge.net/DTD/sodipodi-0.dtd"
   xmlns="http://www.w3.org/2000/svg"
   xmlns:svg="http://www.w3.org/2000/svg">
  <sodipodi:namedview
     id="namedview8406"
     pagecolor="#ffffff"
     bordercolor="#666666"
     borderopacity="1.0"
     inkscape:pageshadow="2"
     inkscape:pageopacity="0.0"
     inkscape:pagecheckerboard="0"
     inkscape:document-units="mm"
     showgrid="false"
     lock-margins="true"
     inkscape:zoom="1.6895256"
     inkscape:cx="123.11148"
     inkscape:cy="237.34473"
     inkscape:window-width="1920"
     inkscape:window-height="1063"
     inkscape:window-x="0"
     inkscape:window-y="17"
     inkscape:window-maximized="1"
     inkscape:current-layer="layer1"
     inkscape:snap-to-guides="false"
     fit-margin-top="3.5"
     fit-margin-left="3.5"
     fit-margin-right="3.5"
     fit-margin-bottom="3.5" />
  <defs
     id="defs8401" />
  <g
     inkscape:label="Layer 1"
     inkscape:groupmode="layer"
     id="layer1"
     transform="translate(-49.788789,-45.944413)">
    <g
       aria-label="Electronic Components"
       id="text1027-6"
       style="font-style:italic;font-size:7.05556px;line-height:100%;font-family:Roboto;-inkscape-font-specification:'Roboto Italic';letter-spacing:0px;word-spacing:0px;fill:#808080">
      <path
         d="m 69.485546,112.79465 h -2.1084 l -0.310058,1.77767 h 2.452909 l -0.09646,0.54088 h -3.097142 l 0.871609,-5.01606 h 3.062692 l -0.09646,0.54432 h -2.415013 l -0.279053,1.61231 h 2.1084 z"
         id="path26433" />
      <path
         d="m 70.829134,115.1132 h -0.620117 l 0.916396,-5.29167 h 0.623562 z"
         id="path26435" />
      <path
         d="m 73.461189,115.1821 q -0.69591,-0.0138 -1.088651,-0.51332 -0.392741,-0.49954 -0.330729,-1.27813 l 0.01722,-0.14814 q 0.05857,-0.55466 0.327285,-1.01286 0.272162,-0.4582 0.661458,-0.68902 0.389297,-0.23427 0.840604,-0.22393 0.575332,0.0138 0.902616,0.38241 0.327284,0.36862 0.35829,0.99907 0.01033,0.22394 -0.01378,0.44787 l -0.0379,0.28594 h -2.435684 q -0.06201,0.50643 0.165364,0.86127 0.230822,0.35485 0.685575,0.36863 0.551215,0.0138 1.019749,-0.49609 l 0.35829,0.30316 q -0.234267,0.33762 -0.606337,0.53055 -0.368626,0.18948 -0.823379,0.18259 z m 0.396186,-3.34519 q -0.38585,-0.0103 -0.675239,0.26183 -0.285943,0.27216 -0.454753,0.80959 l 1.812122,0.003 0.01378,-0.0551 q 0.05512,-0.43408 -0.141249,-0.72003 -0.192925,-0.28939 -0.554661,-0.29972 z"
         id="path26437" />
      <path
         d="m 77.081986,114.66533 q 0.334175,0.007 0.602893,-0.19292 0.268717,-0.20326 0.3514,-0.53055 l 0.589111,-0.003 q -0.05168,0.3514 -0.282498,0.64079 -0.227376,0.28939 -0.575331,0.4513 -0.347955,0.16192 -0.713135,0.15159 -0.465089,-0.007 -0.788928,-0.24116 -0.320394,-0.23771 -0.471978,-0.65801 -0.151584,-0.42375 -0.103353,-0.95085 l 0.01722,-0.17225 q 0.06546,-0.53744 0.313504,-0.96119 0.248047,-0.42374 0.647679,-0.65801 0.399631,-0.23771 0.881945,-0.22393 0.585666,0.0138 0.937066,0.39274 0.3514,0.37896 0.3514,0.96118 l -0.582221,-0.003 q -0.0069,-0.36518 -0.203261,-0.58911 -0.196371,-0.22738 -0.530545,-0.24116 -0.485759,-0.0103 -0.809598,0.36173 -0.320394,0.37208 -0.399631,1.04042 l -0.01034,0.0896 q -0.02067,0.22048 -0.0069,0.45475 0.02412,0.40308 0.227377,0.63734 0.20326,0.23427 0.558105,0.2446 z"
         id="path26439" />
      <path
         d="m 80.771686,110.48299 -0.158475,0.90261 h 0.678685 l -0.08613,0.49265 h -0.675239 l -0.389296,2.31855 q -0.01033,0.0896 -0.0034,0.16537 0.02412,0.26871 0.292833,0.26871 0.113689,0 0.303169,-0.0345 l -0.04823,0.52021 q -0.223932,0.062 -0.454753,0.062 -0.372071,-0.007 -0.558106,-0.27216 -0.186035,-0.26872 -0.144694,-0.72002 l 0.37896,-2.30822 h -0.658013 l 0.08613,-0.49265 h 0.658014 l 0.158474,-0.90261 z"
         id="path26441" />
      <path
         d="m 83.7138,111.95404 -0.292833,-0.031 q -0.599447,0 -0.943957,0.54088 l -0.458198,2.64928 h -0.623563 l 0.647679,-3.7276 0.602892,-0.003 -0.09302,0.43408 q 0.396186,-0.52021 0.933622,-0.50643 0.113688,0 0.296278,0.0517 z"
         id="path26443" />
      <path
         d="m 85.746407,111.3167 q 0.468533,0.007 0.802708,0.25494 0.334174,0.24804 0.492649,0.68557 0.161919,0.43408 0.110243,0.95085 l -0.0069,0.0758 q -0.06546,0.54433 -0.32384,0.9853 -0.258382,0.43753 -0.668349,0.68213 -0.409966,0.2446 -0.89917,0.23082 -0.465088,-0.007 -0.802708,-0.25494 -0.334174,-0.24804 -0.489204,-0.67524 -0.155029,-0.42719 -0.110243,-0.94051 0.05168,-0.57878 0.313504,-1.04042 0.261827,-0.46164 0.671794,-0.71313 0.413412,-0.25494 0.909506,-0.24116 z m -1.267796,1.99816 q -0.02412,0.21704 0,0.4513 0.03445,0.40653 0.241157,0.64768 0.210151,0.24116 0.558106,0.25149 0.310058,0.0103 0.571886,-0.15158 0.261827,-0.16536 0.440972,-0.49609 0.179145,-0.33073 0.230822,-0.73381 0.02756,-0.31695 0.01034,-0.53399 -0.04134,-0.41686 -0.251492,-0.65801 -0.210151,-0.24116 -0.558106,-0.25494 -0.482313,-0.0103 -0.819933,0.37896 -0.33762,0.3893 -0.416857,1.01975 z"
         id="path26445" />
      <path
         d="m 88.850441,111.38216 -0.08957,0.47197 q 0.502984,-0.55121 1.143772,-0.53743 0.5271,0.0138 0.778592,0.36518 0.251492,0.3514 0.186035,0.98874 l -0.406521,2.44258 h -0.623563 l 0.409967,-2.45291 q 0.02067,-0.16881 0.0034,-0.31351 -0.05857,-0.48231 -0.568441,-0.49265 -0.561551,-0.0103 -0.985298,0.59945 l -0.461643,2.65962 h -0.623563 l 0.647679,-3.7276 z"
         id="path26447" />
      <path
         d="m 92.099168,115.1132 h -0.620117 l 0.647678,-3.7276 h 0.620118 z m 0.51332,-5.08841 q 0.158474,-0.007 0.261827,0.0965 0.106798,0.0999 0.106798,0.26527 -0.0034,0.16192 -0.106798,0.26528 -0.09991,0.10335 -0.261827,0.11024 -0.16192,0.007 -0.265273,-0.093 -0.103353,-0.0999 -0.09991,-0.26183 0.0034,-0.16192 0.103353,-0.26871 0.09991,-0.1068 0.261828,-0.11369 z"
         id="path26449" />
      <path
         d="m 94.693327,114.66533 q 0.334174,0.007 0.602892,-0.19292 0.268718,-0.20326 0.3514,-0.53055 l 0.589112,-0.003 q -0.05168,0.3514 -0.282498,0.64079 -0.227377,0.28939 -0.575332,0.4513 -0.347954,0.16192 -0.713135,0.15159 -0.465088,-0.007 -0.788927,-0.24116 -0.320394,-0.23771 -0.471979,-0.65801 -0.151584,-0.42375 -0.103352,-0.95085 l 0.01722,-0.17225 q 0.06546,-0.53744 0.313504,-0.96119 0.248047,-0.42374 0.647678,-0.65801 0.399632,-0.23771 0.881945,-0.22393 0.585667,0.0138 0.937067,0.39274 0.3514,0.37896 0.3514,0.96118 l -0.582222,-0.003 q -0.0069,-0.36518 -0.20326,-0.58911 -0.196371,-0.22738 -0.530546,-0.24116 -0.485758,-0.0103 -0.809597,0.36173 -0.320395,0.37208 -0.399632,1.04042 l -0.01034,0.0896 q -0.02067,0.22048 -0.0069,0.45475 0.02412,0.40308 0.227376,0.63734 0.203261,0.23427 0.558106,0.2446 z"
         id="path26451" />
      <path
         d="m 102.38623,113.51467 q -0.1447,0.77859 -0.70625,1.23335 -0.5581,0.45475 -1.34014,0.43408 -0.465087,-0.0103 -0.813042,-0.22738 -0.347955,-0.22048 -0.540881,-0.63045 -0.192925,-0.41341 -0.213596,-0.91295 -0.01378,-0.2825 0.02412,-0.55122 l 0.05857,-0.41341 q 0.161919,-1.12999 0.792372,-1.78111 0.633894,-0.65457 1.539954,-0.63735 0.70625,0.0138 1.11966,0.4582 0.41341,0.44097 0.43753,1.22646 h -0.64423 q -0.0448,-1.0542 -0.82683,-1.13689 l -0.11369,-0.007 q -0.65112,-0.0172 -1.08865,0.48576 -0.434079,0.49954 -0.561548,1.36771 l -0.07579,0.52021 -0.02067,0.30316 q -0.02067,0.6339 0.223931,1.00942 0.248047,0.37207 0.733809,0.38585 0.52365,0.0172 0.86472,-0.25149 0.34451,-0.26872 0.52365,-0.86472 z"
         id="path26453" />
      <path
         d="m 105.02518,111.3167 q 0.46853,0.007 0.8027,0.25494 0.33418,0.24804 0.49265,0.68557 0.16192,0.43408 0.11025,0.95085 l -0.007,0.0758 q -0.0655,0.54433 -0.32384,0.9853 -0.25839,0.43753 -0.66835,0.68213 -0.40997,0.2446 -0.89917,0.23082 -0.46509,-0.007 -0.80271,-0.25494 -0.33418,-0.24804 -0.48921,-0.67524 -0.15502,-0.42719 -0.11024,-0.94051 0.0517,-0.57878 0.31351,-1.04042 0.26182,-0.46164 0.67179,-0.71313 0.41341,-0.25494 0.90951,-0.24116 z m -1.2678,1.99816 q -0.0241,0.21704 0,0.4513 0.0345,0.40653 0.24116,0.64768 0.21015,0.24116 0.5581,0.25149 0.31006,0.0103 0.57189,-0.15158 0.26183,-0.16536 0.44097,-0.49609 0.17915,-0.33073 0.23082,-0.73381 0.0276,-0.31695 0.0103,-0.53399 -0.0413,-0.41686 -0.25149,-0.65801 -0.21016,-0.24116 -0.55811,-0.25494 -0.48231,-0.0103 -0.81993,0.37896 -0.33762,0.3893 -0.41686,1.01975 z"
         id="path26455" />
      <path
         d="m 108.12232,111.38216 -0.0792,0.41685 q 0.46853,-0.49609 1.13344,-0.48231 0.35484,0.007 0.59944,0.16192 0.24805,0.15503 0.34107,0.43753 0.52365,-0.61323 1.23679,-0.59945 0.5581,0.0138 0.82338,0.37552 0.26527,0.36173 0.19637,0.97151 l -0.40997,2.44947 h -0.62012 l 0.40652,-2.45636 q 0.0207,-0.17914 0,-0.32728 -0.0654,-0.46853 -0.61322,-0.47887 -0.34107,-0.007 -0.62012,0.2136 -0.27561,0.21704 -0.35485,0.57188 l -0.42374,2.47703 h -0.62701 l 0.41341,-2.45291 q 0.0448,-0.38241 -0.11713,-0.58911 -0.15848,-0.20671 -0.4961,-0.2136 -0.58222,-0.0138 -0.92673,0.53055 l -0.47198,2.72507 h -0.62356 l 0.64768,-3.7276 z"
         id="path26457" />
      <path
         d="m 116.30098,113.26662 q -0.0689,0.56845 -0.30661,1.0232 -0.23772,0.45475 -0.58912,0.68213 -0.3514,0.22393 -0.77859,0.21359 -0.64768,-0.0138 -0.99219,-0.43752 l -0.33417,1.79834 h -0.62356 l 0.89572,-5.16076 0.565,-0.003 -0.0689,0.41685 q 0.46164,-0.49609 1.10587,-0.48231 0.53744,0.0138 0.83716,0.39619 0.29972,0.3824 0.31695,1.0542 0.003,0.22048 -0.0172,0.42719 z m -0.61323,-0.0723 0.0172,-0.28939 q 0,-0.50298 -0.19293,-0.76826 -0.18948,-0.26871 -0.55121,-0.2825 -0.54088,-0.0138 -0.93363,0.51332 l -0.3135,1.78801 q 0.21015,0.49609 0.75448,0.50987 0.46509,0.0103 0.78892,-0.36173 0.32729,-0.37552 0.43064,-1.10932 z"
         id="path26459" />
      <path
         d="m 118.87102,111.3167 q 0.46854,0.007 0.80271,0.25494 0.33418,0.24804 0.49265,0.68557 0.16192,0.43408 0.11024,0.95085 l -0.007,0.0758 q -0.0654,0.54433 -0.32384,0.9853 -0.25838,0.43753 -0.66834,0.68213 -0.40997,0.2446 -0.89918,0.23082 -0.46508,-0.007 -0.8027,-0.25494 -0.33418,-0.24804 -0.48921,-0.67524 -0.15503,-0.42719 -0.11024,-0.94051 0.0517,-0.57878 0.3135,-1.04042 0.26183,-0.46164 0.6718,-0.71313 0.41341,-0.25494 0.9095,-0.24116 z m -1.26779,1.99816 q -0.0241,0.21704 0,0.4513 0.0345,0.40653 0.24115,0.64768 0.21016,0.24116 0.55811,0.25149 0.31006,0.0103 0.57189,-0.15158 0.26182,-0.16536 0.44097,-0.49609 0.17914,-0.33073 0.23082,-0.73381 0.0276,-0.31695 0.0103,-0.53399 -0.0413,-0.41686 -0.2515,-0.65801 -0.21015,-0.24116 -0.5581,-0.25494 -0.48232,-0.0103 -0.81994,0.37896 -0.33761,0.3893 -0.41685,1.01975 z"
         id="path26461" />
      <path
         d="m 121.97505,111.38216 -0.0896,0.47197 q 0.50299,-0.55121 1.14377,-0.53743 0.5271,0.0138 0.7786,0.36518 0.25149,0.3514 0.18603,0.98874 l -0.40652,2.44258 h -0.62356 l 0.40996,-2.45291 q 0.0207,-0.16881 0.003,-0.31351 -0.0586,-0.48231 -0.56844,-0.49265 -0.56155,-0.0103 -0.9853,0.59945 l -0.46164,2.65962 h -0.62357 l 0.64768,-3.7276 z"
         id="path26463" />
      <path
         d="m 126.16085,115.1821 q -0.69591,-0.0138 -1.08865,-0.51332 -0.39274,-0.49954 -0.33073,-1.27813 l 0.0172,-0.14814 q 0.0586,-0.55466 0.32729,-1.01286 0.27216,-0.4582 0.66146,-0.68902 0.38929,-0.23427 0.8406,-0.22393 0.57533,0.0138 0.90262,0.38241 0.32728,0.36862 0.35829,0.99907 0.0103,0.22394 -0.0138,0.44787 l -0.0379,0.28594 h -2.43568 q -0.062,0.50643 0.16536,0.86127 0.23082,0.35485 0.68558,0.36863 0.55121,0.0138 1.01974,-0.49609 l 0.3583,0.30316 q -0.23427,0.33762 -0.60634,0.53055 -0.36863,0.18948 -0.82338,0.18259 z m 0.39619,-3.34519 q -0.38586,-0.0103 -0.67524,0.26183 -0.28595,0.27216 -0.45476,0.80959 l 1.81213,0.003 0.0138,-0.0551 q 0.0551,-0.43408 -0.14125,-0.72003 -0.19293,-0.28939 -0.55466,-0.29972 z"
         id="path26465" />
      <path
         d="m 129.44403,111.38216 -0.0896,0.47197 q 0.50298,-0.55121 1.14377,-0.53743 0.5271,0.0138 0.77859,0.36518 0.25149,0.3514 0.18604,0.98874 l -0.40653,2.44258 h -0.62356 l 0.40997,-2.45291 q 0.0207,-0.16881 0.003,-0.31351 -0.0586,-0.48231 -0.56844,-0.49265 -0.56155,-0.0103 -0.9853,0.59945 l -0.46164,2.65962 h -0.62356 l 0.64768,-3.7276 z"
         id="path26467" />
      <path
         d="m 133.66428,110.48299 -0.15848,0.90261 h 0.67869 l -0.0861,0.49265 h -0.67524 l -0.3893,2.31855 q -0.0103,0.0896 -0.003,0.16537 0.0241,0.26871 0.29283,0.26871 0.11369,0 0.30317,-0.0345 l -0.0482,0.52021 q -0.22393,0.062 -0.45475,0.062 -0.37208,-0.007 -0.55811,-0.27216 -0.18604,-0.26872 -0.14469,-0.72002 l 0.37896,-2.30822 h -0.65802 l 0.0861,-0.49265 h 0.65801 l 0.15848,-0.90261 z"
         id="path26469" />
      <path
         d="m 136.59605,114.10378 q 0.0517,-0.38585 -0.42375,-0.54432 l -0.64767,-0.18948 q -0.81994,-0.2825 -0.79238,-0.93707 0.0241,-0.49265 0.44787,-0.80615 0.42719,-0.31695 1.00252,-0.31006 0.565,0.007 0.9164,0.33073 0.35484,0.32039 0.34106,0.83716 l -0.62012,-0.003 q 0.007,-0.27905 -0.1757,-0.45475 -0.18259,-0.1757 -0.48576,-0.18259 -0.32384,-0.007 -0.5581,0.15847 -0.21704,0.15503 -0.25149,0.40653 -0.0448,0.32383 0.39618,0.47197 l 0.31351,0.0861 q 0.64078,0.16537 0.9095,0.43064 0.26872,0.26527 0.24805,0.65801 -0.0207,0.34796 -0.22738,0.60634 -0.2067,0.25838 -0.55121,0.39619 -0.34451,0.13435 -0.73381,0.12402 -0.59256,-0.007 -0.97841,-0.34451 -0.38585,-0.34107 -0.37207,-0.87506 l 0.62357,0.003 q 0,0.3135 0.19981,0.50298 0.19982,0.18948 0.54777,0.18948 0.34107,0.007 0.58911,-0.14124 0.24805,-0.15159 0.2825,-0.41342 z"
         id="path26471" />
    </g>
    <g
       aria-label="IOP-EC"
       id="text1027-35"
       style="font-weight:bold;font-size:10.2306px;line-height:100%;font-family:Roboto;-inkscape-font-specification:'Roboto Bold';letter-spacing:0px;word-spacing:0px;fill:#4d4d4d">
      <path
         d="m 87.386822,104.48736 h -1.498623 v -7.273319 h 1.498623 z"
         id="path26420" />
      <path
         d="m 94.750057,101.01555 q 0,1.07401 -0.379651,1.88327 -0.379652,0.80925 -1.089,1.24885 -0.704353,0.4396 -1.618513,0.4396 -0.904169,0 -1.613517,-0.4346 -0.709349,-0.43461 -1.098991,-1.23887 -0.389642,-0.80925 -0.394637,-1.85829 v -0.35967 q 0,-1.074012 0.384647,-1.888263 0.389642,-0.819248 1.093994,-1.253848 0.709349,-0.439597 1.618513,-0.439597 0.909165,0 1.613518,0.439597 0.709348,0.4346 1.093995,1.253848 0.389642,0.814251 0.389642,1.883273 z m -1.518605,-0.3297 q 0,-1.143948 -0.409624,-1.738402 -0.409623,-0.594454 -1.168926,-0.594454 -0.754307,0 -1.16393,0.589459 -0.409624,0.584463 -0.414619,1.718417 v 0.35468 q 0,1.11397 0.409623,1.72841 0.409624,0.61444 1.178917,0.61444 0.754307,0 1.158935,-0.58946 0.404629,-0.59446 0.409624,-1.72842 z"
         id="path26422" />
      <path
         d="m 97.33768,101.92471 v 2.56265 h -1.498623 v -7.273319 h 2.837393 q 0.819247,0 1.43868,0.299724 0.62442,0.299725 0.95912,0.854215 0.33469,0.549496 0.33469,1.253848 0,1.069022 -0.73433,1.688452 -0.729326,0.61443 -2.023137,0.61443 z m 0,-1.21388 h 1.33877 q 0.594454,0 0.904169,-0.27975 0.314711,-0.27974 0.314711,-0.799261 0,-0.534509 -0.314711,-0.864206 -0.314711,-0.329697 -0.869201,-0.339688 H 97.33768 Z"
         id="path26424" />
      <path
         d="m 105.1505,101.95469 h -2.81242 v -1.16394 h 2.81242 z"
         id="path26426" />
      <path
         d="m 110.78033,101.33525 h -2.87736 v 1.94821 h 3.3769 v 1.2039 h -4.87552 v -7.273319 h 4.86553 v 1.213884 h -3.36691 v 1.733405 h 2.87736 z"
         id="path26428" />
      <path
         d="m 117.86882,102.06458 q -0.0849,1.17393 -0.86921,1.84831 -0.77928,0.67438 -2.0581,0.67438 -1.39872,0 -2.20298,-0.93914 -0.79927,-0.94413 -0.79927,-2.58762 v -0.44459 q 0,-1.049041 0.36966,-1.848307 0.36966,-0.799265 1.05404,-1.223875 0.68936,-0.429606 1.59853,-0.429606 1.25884,0 2.02813,0.674381 0.7693,0.67438 0.88919,1.89326 h -1.49863 q -0.0549,-0.704353 -0.39463,-1.019063 -0.3347,-0.319707 -1.02406,-0.319707 -0.74931,0 -1.12397,0.539505 -0.36966,0.534509 -0.37965,1.663472 v 0.54949 q 0,1.17892 0.35467,1.72342 0.35967,0.5445 1.12897,0.5445 0.69436,0 1.03405,-0.31471 0.34468,-0.31971 0.39463,-0.9841 z"
         id="path26430" />
    </g>
    <text
       xml:space="preserve"
       style="font-style:normal;font-weight:normal;font-size:10.5833px;line-height:1.25;font-family:sans-serif;letter-spacing:0px;word-spacing:0px;fill:#000000;fill-opacity:1;stroke:none;stroke-width:0.264583"
       x="149.84872"
       y="117.59502"
       id="text19708"><tspan
         sodipodi:role="line"
         id="tspan19706"
         style="stroke-width:0.264583"></tspan></text>
    <g
       id="g22241"
       transform="matrix(0.26458333,0,0,0.26458333,-176.9756,-222.72994)">
      <path
         d="m 1089.43,1161.56 -61.83,-61.86 c 6.11,-15.63 2.71,-33.99 -10.2,-46.9 -13.59,-13.6 -33.975,-16.32 -50.284,-8.84 l 29.22,29.23 -20.386,20.39 -29.899,-29.23 c -8.155,16.32 -4.757,36.71 8.834,50.31 12.911,12.91 31.258,16.31 46.885,10.19 l 61.84,61.86 c 2.72,2.72 6.8,2.72 9.51,0 l 15.63,-15.63 c 3.4,-2.72 3.4,-7.48 0.68,-9.52 z"
         stroke="#41454b"
         id="path262"
         style="fill:none;stroke-width:4" />
      <path
         d="m 1076.77,1132.79 v -6.57 l 2.25,-2.33 c 9.48,8.15 21.78,13.06 35.17,13.06 29.85,0 54.05,-24.2 54.05,-54.06 0,-29.86 -24.2,-54.07 -54.05,-54.07 -29.85,0 -54.05,24.21 -54.05,54.07 0,13.39 4.91,25.7 13.06,35.18 l -2.33,2.25 h -6.57 l -58.01,52.09 12.39,12.39 z m 0,-49.9 c 0,-20.71 16.72,-37.43 37.42,-37.43 20.71,0 37.42,16.72 37.42,37.43 0,20.71 -16.71,37.43 -37.42,37.43 -20.7,0 -37.42,-16.72 -37.42,-37.43 z"
         fill="#41454b"
         id="path264" />
      <path
         fill-rule="evenodd"
         clip-rule="evenodd"
         d="m 1087.76,1092.65 c 0,-0.92 0.56,-1.67 1.25,-1.67 h 7.5 c 0.69,0 1.25,0.75 1.25,1.67 0,0.92 -0.56,1.66 -1.25,1.66 h -7.5 c -0.69,0 -1.25,-0.74 -1.25,-1.66 z"
         fill="#41454b"
         id="path266" />
      <path
         fill-rule="evenodd"
         clip-rule="evenodd"
         d="m 1087.76,1072.66 c 0,-0.92 0.56,-1.67 1.25,-1.67 h 7.5 c 0.69,0 1.25,0.75 1.25,1.67 0,0.92 -0.56,1.66 -1.25,1.66 h -7.5 c -0.69,0 -1.25,-0.74 -1.25,-1.66 z"
         fill="#41454b"
         id="path268" />
      <path
         fill-rule="evenodd"
         clip-rule="evenodd"
         d="m 1087.76,1082.65 c 0,-0.92 0.56,-1.66 1.25,-1.66 h 7.5 c 0.69,0 1.25,0.74 1.25,1.66 0,0.92 -0.56,1.67 -1.25,1.67 h -7.5 c -0.69,0 -1.25,-0.75 -1.25,-1.67 z"
         fill="#41454b"
         id="path270" />
      <path
         fill-rule="evenodd"
         clip-rule="evenodd"
         d="m 1124.48,1065.37 c -0.92,0 -1.67,-0.56 -1.67,-1.25 v -7.5 c 0,-0.69 0.75,-1.25 1.67,-1.25 0.92,0 1.66,0.56 1.66,1.25 v 7.5 c 0,0.69 -0.74,1.25 -1.66,1.25 z"
         fill="#41454b"
         id="path272" />
      <path
         fill-rule="evenodd"
         clip-rule="evenodd"
         d="m 1104.49,1065.37 c -0.93,0 -1.67,-0.56 -1.67,-1.25 v -7.5 c 0,-0.69 0.74,-1.25 1.67,-1.25 0.92,0 1.66,0.56 1.66,1.25 v 7.5 c 0,0.69 -0.74,1.25 -1.66,1.25 z"
         fill="#41454b"
         id="path274" />
      <path
         fill-rule="evenodd"
         clip-rule="evenodd"
         d="m 1114.48,1065.37 c -0.92,0 -1.67,-0.56 -1.67,-1.25 v -7.5 c 0,-0.69 0.75,-1.25 1.67,-1.25 0.92,0 1.67,0.56 1.67,1.25 v 7.5 c 0,0.69 -0.75,1.25 -1.67,1.25 z"
         fill="#41454b"
         id="path276" />
      <path
         fill-rule="evenodd"
         clip-rule="evenodd"
         d="m 1124.48,1110.56 c -0.92,0 -1.67,-0.56 -1.67,-1.25 v -7.5 c 0,-0.69 0.75,-1.25 1.67,-1.25 0.92,0 1.66,0.56 1.66,1.25 v 7.5 c 0,0.69 -0.74,1.25 -1.66,1.25 z"
         fill="#41454b"
         id="path278" />
      <path
         fill-rule="evenodd"
         clip-rule="evenodd"
         d="m 1104.49,1110.56 c -0.93,0 -1.67,-0.56 -1.67,-1.25 v -7.5 c 0,-0.69 0.74,-1.25 1.67,-1.25 0.92,0 1.66,0.56 1.66,1.25 v 7.5 c 0,0.69 -0.74,1.25 -1.66,1.25 z"
         fill="#41454b"
         id="path280" />
      <path
         fill-rule="evenodd"
         clip-rule="evenodd"
         d="m 1114.48,1110.56 c -0.92,0 -1.67,-0.56 -1.67,-1.25 v -7.5 c 0,-0.69 0.75,-1.25 1.67,-1.25 0.92,0 1.67,0.56 1.67,1.25 v 7.5 c 0,0.69 -0.75,1.25 -1.67,1.25 z"
         fill="#41454b"
         id="path282" />
      <path
         fill-rule="evenodd"
         clip-rule="evenodd"
         d="m 1131.14,1092.65 c 0,-0.92 0.56,-1.67 1.25,-1.67 h 7.5 c 0.69,0 1.25,0.75 1.25,1.67 0,0.92 -0.56,1.66 -1.25,1.66 h -7.5 c -0.69,0 -1.25,-0.74 -1.25,-1.66 z"
         fill="#41454b"
         id="path284" />
      <path
         fill-rule="evenodd"
         clip-rule="evenodd"
         d="m 1131.14,1072.66 c 0,-0.92 0.56,-1.67 1.25,-1.67 h 7.5 c 0.69,0 1.25,0.75 1.25,1.67 0,0.92 -0.56,1.66 -1.25,1.66 h -7.5 c -0.69,0 -1.25,-0.74 -1.25,-1.66 z"
         fill="#41454b"
         id="path286" />
      <path
         fill-rule="evenodd"
         clip-rule="evenodd"
         d="m 1131.14,1082.65 c 0,-0.92 0.56,-1.66 1.25,-1.66 h 7.5 c 0.69,0 1.25,0.74 1.25,1.66 0,0.92 -0.56,1.67 -1.25,1.67 h -7.5 c -0.69,0 -1.25,-0.75 -1.25,-1.67 z"
         fill="#41454b"
         id="path288" />
      <path
         fill-rule="evenodd"
         clip-rule="evenodd"
         d="m 1127.81,1065.99 h -26.66 c -1.84,0 -3.33,1.49 -3.33,3.33 v 26.66 c 0,1.84 1.49,3.33 3.33,3.33 h 26.66 c 1.84,0 3.33,-1.49 3.33,-3.33 v -26.66 c 0,-1.84 -1.49,-3.33 -3.33,-3.33 z m -26.66,-3.33 c -3.68,0 -6.66,2.98 -6.66,6.66 v 26.66 c 0,3.68 2.98,6.66 6.66,6.66 h 26.66 c 3.68,0 6.66,-2.98 6.66,-6.66 v -26.66 c 0,-3.68 -2.98,-6.66 -6.66,-6.66 z"
         fill="#41454b"
         id="path290" />
    </g>
  </g>
</svg>
