<?xml version="1.0" encoding="UTF-8" standalone="no"?>
<!-- Created with Inkscape (http://www.inkscape.org/) -->

<svg
   width="104.18938mm"
   height="74.184746mm"
   viewBox="0 0 104.18938 74.184746"
   version="1.1"
   id="svg8404"
   inkscape:version="1.1.2 (0a00cf5339, 2022-02-04)"
   sodipodi:docname="IOP-OKH-A.svg"
   xmlns:inkscape="http://www.inkscape.org/namespaces/inkscape"
   xmlns:sodipodi="http://sodipodi.sourceforge.net/DTD/sodipodi-0.dtd"
   xmlns="http://www.w3.org/2000/svg"
   xmlns:svg="http://www.w3.org/2000/svg">
  <sodipodi:namedview
     id="namedview8406"
     pagecolor="#ffffff"
     bordercolor="#666666"
     borderopacity="1.0"
     inkscape:pageshadow="2"
     inkscape:pageopacity="0.0"
     inkscape:pagecheckerboard="0"
     inkscape:document-units="mm"
     showgrid="false"
     lock-margins="true"
     fit-margin-top="3.5"
     fit-margin-left="3.5"
     fit-margin-right="3.5"
     fit-margin-bottom="3.5"
     inkscape:zoom="1.6895256"
     inkscape:cx="114.23325"
     inkscape:cy="237.34473"
     inkscape:window-width="1920"
     inkscape:window-height="1063"
     inkscape:window-x="0"
     inkscape:window-y="17"
     inkscape:window-maximized="1"
     inkscape:current-layer="text1027-35" />
  <defs
     id="defs8401" />
  <g
     inkscape:label="Layer 1"
     inkscape:groupmode="layer"
     id="layer1"
     transform="translate(-49.788789,-45.944413)">
    <g
       id="g8384"
       transform="matrix(0.26458333,0,0,0.26458333,54.782872,-222.69554)">
      <path
         d="m 213.366,1161.56 -61.837,-61.86 c 6.115,-15.63 2.718,-33.99 -10.194,-46.9 -13.59,-13.6 -33.976,-16.32 -50.2853,-8.84 l 29.2203,29.23 -20.3863,20.39 -29.8996,-29.23 c -8.1544,16.32 -4.7568,36.71 8.834,50.31 12.9112,12.91 31.2589,16.31 46.8879,10.19 l 61.838,61.86 c 2.718,2.72 6.795,2.72 9.513,0 l 15.63,-15.63 c 3.398,-2.72 3.397,-7.48 0.679,-9.52 z"
         stroke="#41454b"
         id="path142"
         style="fill:none;stroke-width:4" />
      <path
         d="m 200.706,1132.79 v -6.57 l 2.245,-2.33 c 9.479,8.15 21.786,13.06 35.173,13.06 29.851,0 54.048,-24.2 54.048,-54.06 0,-29.86 -24.197,-54.07 -54.048,-54.07 -29.851,0 -54.048,24.21 -54.048,54.07 0,13.39 4.906,25.7 13.055,35.18 l -2.328,2.25 h -6.569 l -58.011,52.09 12.389,12.39 z m 0,-49.9 c 0,-20.71 16.713,-37.43 37.418,-37.43 20.705,0 37.418,16.72 37.418,37.43 0,20.71 -16.713,37.43 -37.418,37.43 -20.705,0 -37.418,-16.72 -37.418,-37.43 z"
         fill="#41454b"
         stroke="#41454b"
         stroke-width="0.519073"
         id="path144" />
    </g>
    <g
       aria-label="Open Know-How Discoverability"
       id="text1027-6"
       style="font-style:italic;font-size:7.05556px;line-height:100%;font-family:Roboto;-inkscape-font-specification:'Roboto Italic';letter-spacing:0px;word-spacing:0px;fill:#808080">
      <path
         d="m 54.904275,115.1821 q -0.478869,-0.0103 -0.833714,-0.23082 -0.3514,-0.22049 -0.55466,-0.64768 -0.203261,-0.43064 -0.223932,-0.96463 -0.02067,-0.41685 0.09302,-1.03008 0.113688,-0.61323 0.392741,-1.10588 0.279053,-0.49265 0.678684,-0.78893 0.540881,-0.39963 1.233345,-0.38585 0.733806,0.0138 1.157553,0.50988 0.423747,0.49265 0.454753,1.3367 0.01378,0.36173 -0.07579,0.91984 -0.08613,0.5581 -0.313504,1.03697 -0.223932,0.47887 -0.571886,0.80271 -0.606338,0.56499 -1.436606,0.54777 z m 1.760445,-3.14882 q 0.02067,-0.67868 -0.237712,-1.05075 -0.258382,-0.37552 -0.768257,-0.3893 -0.461643,-0.0138 -0.826823,0.24805 -0.361735,0.26182 -0.596002,0.78548 -0.230822,0.52021 -0.292833,1.31947 l -0.01034,0.22393 q -0.02067,0.67524 0.241157,1.05765 0.261828,0.3824 0.761367,0.39618 0.651123,0.0172 1.078315,-0.46853 0.430638,-0.4892 0.571887,-1.37115 0.0689,-0.43408 0.07924,-0.75103 z"
         id="path12009" />
      <path
         d="m 61.08478,113.26662 q -0.0689,0.56845 -0.306613,1.0232 -0.237712,0.45475 -0.589112,0.68213 -0.3514,0.22393 -0.778592,0.21359 -0.647678,-0.0138 -0.992188,-0.43752 l -0.334175,1.79834 h -0.623562 l 0.895725,-5.16076 0.564996,-0.003 -0.0689,0.41685 q 0.461643,-0.49609 1.105876,-0.48231 0.537436,0.0138 0.837159,0.39619 0.299724,0.3824 0.316949,1.0542 0.0034,0.22048 -0.01723,0.42719 z m -0.613227,-0.0723 0.01723,-0.28939 q 0,-0.50298 -0.192925,-0.76826 -0.18948,-0.26871 -0.551216,-0.2825 -0.54088,-0.0138 -0.933621,0.51332 l -0.313504,1.78801 q 0.210151,0.49609 0.754476,0.50987 0.465089,0.0103 0.788928,-0.36173 0.327284,-0.37552 0.430637,-1.10932 z"
         id="path12011" />
      <path
         d="m 63.196626,115.1821 q -0.69591,-0.0138 -1.088651,-0.51332 -0.392741,-0.49954 -0.33073,-1.27813 l 0.01723,-0.14814 q 0.05857,-0.55466 0.327284,-1.01286 0.272163,-0.4582 0.661459,-0.68902 0.389296,-0.23427 0.840604,-0.22393 0.575331,0.0138 0.902615,0.38241 0.327285,0.36862 0.358291,0.99907 0.01033,0.22394 -0.01378,0.44787 l -0.0379,0.28594 h -2.435684 q -0.06201,0.50643 0.165365,0.86127 0.230821,0.35485 0.685574,0.36863 0.551216,0.0138 1.019749,-0.49609 l 0.35829,0.30316 q -0.234266,0.33762 -0.606337,0.53055 -0.368625,0.18948 -0.823378,0.18259 z m 0.396186,-3.34519 q -0.385851,-0.0103 -0.675239,0.26183 -0.285943,0.27216 -0.454753,0.80959 l 1.812121,0.003 0.01378,-0.0551 q 0.05512,-0.43408 -0.141249,-0.72003 -0.192926,-0.28939 -0.554661,-0.29972 z"
         id="path12013" />
      <path
         d="m 66.479803,111.38216 -0.08957,0.47197 q 0.502984,-0.55121 1.143772,-0.53743 0.5271,0.0138 0.778592,0.36518 0.251492,0.3514 0.186036,0.98874 l -0.406522,2.44258 h -0.623563 l 0.409967,-2.45291 q 0.02067,-0.16881 0.0034,-0.31351 -0.05857,-0.48231 -0.568441,-0.49265 -0.561551,-0.0103 -0.985298,0.59945 l -0.461643,2.65962 h -0.623563 l 0.647679,-3.7276 z"
         id="path12015" />
      <path
         d="m 72.550065,112.78776 -0.733806,0.65801 -0.289388,1.66743 h -0.647678 l 0.871609,-5.01606 h 0.647679 l -0.427192,2.44257 2.556262,-2.44257 h 0.833714 l -2.332331,2.2462 1.560629,2.76986 h -0.720025 z"
         id="path12017" />
      <path
         d="m 76.26388,111.38216 -0.08957,0.47197 q 0.502985,-0.55121 1.143773,-0.53743 0.5271,0.0138 0.778592,0.36518 0.251492,0.3514 0.186035,0.98874 l -0.406521,2.44258 h -0.623563 l 0.409967,-2.45291 q 0.02067,-0.16881 0.0034,-0.31351 -0.05857,-0.48231 -0.568441,-0.49265 -0.561551,-0.0103 -0.985298,0.59945 l -0.461643,2.65962 H 75.02709 l 0.647678,-3.7276 z"
         id="path12019" />
      <path
         d="m 80.907874,111.3167 q 0.468533,0.007 0.802707,0.25494 0.334175,0.24804 0.492649,0.68557 0.16192,0.43408 0.110243,0.95085 l -0.0069,0.0758 q -0.06546,0.54433 -0.323839,0.9853 -0.258382,0.43753 -0.668349,0.68213 -0.409967,0.2446 -0.89917,0.23082 -0.465089,-0.007 -0.802708,-0.25494 -0.334175,-0.24804 -0.489204,-0.67524 -0.15503,-0.42719 -0.110243,-0.94051 0.05168,-0.57878 0.313504,-1.04042 0.261827,-0.46164 0.671794,-0.71313 0.413411,-0.25494 0.909506,-0.24116 z m -1.267796,1.99816 q -0.02412,0.21704 0,0.4513 0.03445,0.40653 0.241156,0.64768 0.210151,0.24116 0.558106,0.25149 0.310059,0.0103 0.571886,-0.15158 0.261828,-0.16536 0.440973,-0.49609 0.179145,-0.33073 0.230821,-0.73381 0.02756,-0.31695 0.01034,-0.53399 -0.04134,-0.41686 -0.251492,-0.65801 -0.210151,-0.24116 -0.558106,-0.25494 -0.482314,-0.0103 -0.819933,0.37896 -0.33762,0.3893 -0.416857,1.01975 z"
         id="path12021" />
      <path
         d="m 86.120306,114.23125 1.188558,-2.84565 h 0.644234 l -1.698433,3.7276 h -0.50643 l -0.385851,-2.81809 -1.343588,2.81809 h -0.506429 l -0.403077,-3.7276 h 0.596002 l 0.227377,2.77675 1.322917,-2.77675 h 0.502984 z"
         id="path12023" />
      <path
         d="m 89.568847,113.24251 h -1.636421 l 0.09302,-0.52021 h 1.636422 z"
         id="path12025" />
      <path
         d="m 93.716747,115.1132 h -0.647678 l 0.403076,-2.31855 h -2.449464 l -0.403077,2.31855 h -0.647678 l 0.87161,-5.01606 h 0.647678 l -0.375515,2.15663 h 2.446019 l 0.375516,-2.15663 h 0.651123 z"
         id="path12027" />
      <path
         d="m 96.858675,111.3167 q 0.468534,0.007 0.802708,0.25494 0.334175,0.24804 0.492649,0.68557 0.16192,0.43408 0.110243,0.95085 l -0.0069,0.0758 q -0.06546,0.54433 -0.323839,0.9853 -0.258382,0.43753 -0.668349,0.68213 -0.409967,0.2446 -0.899171,0.23082 -0.465088,-0.007 -0.802707,-0.25494 -0.334175,-0.24804 -0.489204,-0.67524 -0.15503,-0.42719 -0.110243,-0.94051 0.05168,-0.57878 0.313504,-1.04042 0.261827,-0.46164 0.671794,-0.71313 0.413411,-0.25494 0.909505,-0.24116 z m -1.267796,1.99816 q -0.02411,0.21704 0,0.4513 0.03445,0.40653 0.241157,0.64768 0.210151,0.24116 0.558106,0.25149 0.310059,0.0103 0.571886,-0.15158 0.261828,-0.16536 0.440973,-0.49609 0.179145,-0.33073 0.230821,-0.73381 0.02756,-0.31695 0.01034,-0.53399 -0.04134,-0.41686 -0.251493,-0.65801 -0.21015,-0.24116 -0.558105,-0.25494 -0.482314,-0.0103 -0.819934,0.37896 -0.337619,0.3893 -0.416856,1.01975 z"
         id="path12029" />
      <path
         d="m 102.07111,114.23125 1.18856,-2.84565 h 0.64423 l -1.69843,3.7276 h -0.50643 l -0.38585,-2.81809 -1.34359,2.81809 h -0.50643 l -0.403076,-3.7276 h 0.596002 l 0.227376,2.77675 1.322918,-2.77675 h 0.50298 z"
         id="path12031" />
      <path
         d="m 105.7298,115.1132 0.87161,-5.01606 1.30225,0.003 q 0.61323,0 1.0542,0.30661 0.44442,0.30662 0.63734,0.8475 0.19293,0.53743 0.11369,1.20578 l -0.0344,0.25149 q -0.15158,1.09555 -0.85094,1.75011 -0.69935,0.65113 -1.757,0.65113 z m 1.42283,-4.47174 -0.68213,3.93086 0.63734,0.003 q 0.73036,0 1.23679,-0.45475 0.50988,-0.45475 0.66146,-1.24713 0.12058,-0.63389 0.0827,-1.07831 -0.0517,-0.53399 -0.35484,-0.83372 -0.30317,-0.30316 -0.81304,-0.31694 z"
         id="path12033" />
      <path
         d="m 110.83199,115.1132 h -0.62012 l 0.64768,-3.7276 h 0.62012 z m 0.51332,-5.08841 q 0.15847,-0.007 0.26183,0.0965 0.1068,0.0999 0.1068,0.26527 -0.003,0.16192 -0.1068,0.26528 -0.0999,0.10335 -0.26183,0.11024 -0.16192,0.007 -0.26527,-0.093 -0.10336,-0.0999 -0.0999,-0.26183 0.003,-0.16192 0.10335,-0.26871 0.0999,-0.1068 0.26183,-0.11369 z"
         id="path12035" />
      <path
         d="m 114.15996,114.10378 q 0.0517,-0.38585 -0.42375,-0.54432 l -0.64768,-0.18948 q -0.81993,-0.2825 -0.79237,-0.93707 0.0241,-0.49265 0.44786,-0.80615 0.42719,-0.31695 1.00252,-0.31006 0.565,0.007 0.9164,0.33073 0.35484,0.32039 0.34106,0.83716 l -0.62011,-0.003 q 0.007,-0.27905 -0.1757,-0.45475 -0.18259,-0.1757 -0.48576,-0.18259 -0.32384,-0.007 -0.55811,0.15847 -0.21704,0.15503 -0.25149,0.40653 -0.0448,0.32383 0.39619,0.47197 l 0.3135,0.0861 q 0.64079,0.16537 0.90951,0.43064 0.26871,0.26527 0.24804,0.65801 -0.0207,0.34796 -0.22737,0.60634 -0.20671,0.25838 -0.55122,0.39619 -0.34451,0.13435 -0.73381,0.12402 -0.59255,-0.007 -0.9784,-0.34451 -0.38585,-0.34107 -0.37207,-0.87506 l 0.62356,0.003 q 0,0.3135 0.19981,0.50298 0.19982,0.18948 0.54778,0.18948 0.34106,0.007 0.58911,-0.14124 0.24804,-0.15159 0.2825,-0.41342 z"
         id="path12037" />
      <path
         d="m 116.98838,114.66533 q 0.33418,0.007 0.60289,-0.19292 0.26872,-0.20326 0.3514,-0.53055 l 0.58912,-0.003 q -0.0517,0.3514 -0.2825,0.64079 -0.22738,0.28939 -0.57533,0.4513 -0.34796,0.16192 -0.71314,0.15159 -0.46509,-0.007 -0.78893,-0.24116 -0.32039,-0.23771 -0.47197,-0.65801 -0.15159,-0.42375 -0.10336,-0.95085 l 0.0172,-0.17225 q 0.0655,-0.53744 0.3135,-0.96119 0.24805,-0.42374 0.64768,-0.65801 0.39963,-0.23771 0.88195,-0.22393 0.58566,0.0138 0.93706,0.39274 0.3514,0.37896 0.3514,0.96118 l -0.58222,-0.003 q -0.007,-0.36518 -0.20326,-0.58911 -0.19637,-0.22738 -0.53055,-0.24116 -0.48575,-0.0103 -0.80959,0.36173 -0.3204,0.37208 -0.39963,1.04042 l -0.0103,0.0896 q -0.0207,0.22048 -0.007,0.45475 0.0241,0.40308 0.22738,0.63734 0.20326,0.23427 0.5581,0.2446 z"
         id="path12039" />
      <path
         d="m 121.10183,111.3167 q 0.46853,0.007 0.80271,0.25494 0.33417,0.24804 0.49264,0.68557 0.16192,0.43408 0.11025,0.95085 l -0.007,0.0758 q -0.0655,0.54433 -0.32384,0.9853 -0.25838,0.43753 -0.66835,0.68213 -0.40997,0.2446 -0.89917,0.23082 -0.46509,-0.007 -0.80271,-0.25494 -0.33417,-0.24804 -0.4892,-0.67524 -0.15503,-0.42719 -0.11025,-0.94051 0.0517,-0.57878 0.31351,-1.04042 0.26183,-0.46164 0.67179,-0.71313 0.41341,-0.25494 0.90951,-0.24116 z m -1.2678,1.99816 q -0.0241,0.21704 0,0.4513 0.0345,0.40653 0.24116,0.64768 0.21015,0.24116 0.5581,0.25149 0.31006,0.0103 0.57189,-0.15158 0.26183,-0.16536 0.44097,-0.49609 0.17915,-0.33073 0.23082,-0.73381 0.0276,-0.31695 0.0103,-0.53399 -0.0413,-0.41686 -0.25149,-0.65801 -0.21015,-0.24116 -0.55811,-0.25494 -0.48231,-0.0103 -0.81993,0.37896 -0.33762,0.3893 -0.41686,1.01975 z"
         id="path12041" />
      <path
         d="m 124.27132,114.24159 1.34359,-2.85599 h 0.65801 l -1.87758,3.7276 h -0.47542 l -0.73036,-3.7276 h 0.61322 z"
         id="path12043" />
      <path
         d="m 127.87833,115.1821 q -0.69591,-0.0138 -1.08865,-0.51332 -0.39274,-0.49954 -0.33073,-1.27813 l 0.0172,-0.14814 q 0.0586,-0.55466 0.32728,-1.01286 0.27217,-0.4582 0.66146,-0.68902 0.3893,-0.23427 0.84061,-0.22393 0.57533,0.0138 0.90261,0.38241 0.32729,0.36862 0.35829,0.99907 0.0103,0.22394 -0.0138,0.44787 l -0.0379,0.28594 h -2.43568 q -0.062,0.50643 0.16537,0.86127 0.23082,0.35485 0.68557,0.36863 0.55122,0.0138 1.01975,-0.49609 l 0.35829,0.30316 q -0.23427,0.33762 -0.60634,0.53055 -0.36862,0.18948 -0.82338,0.18259 z m 0.39619,-3.34519 q -0.38585,-0.0103 -0.67524,0.26183 -0.28594,0.27216 -0.45475,0.80959 l 1.81212,0.003 0.0138,-0.0551 q 0.0551,-0.43408 -0.14125,-0.72003 -0.19293,-0.28939 -0.55466,-0.29972 z"
         id="path12045" />
      <path
         d="m 132.24328,111.95404 -0.29284,-0.031 q -0.59944,0 -0.94395,0.54088 l -0.4582,2.64928 h -0.62356 l 0.64767,-3.7276 0.6029,-0.003 -0.093,0.43408 q 0.39619,-0.52021 0.93362,-0.50643 0.11369,0 0.29628,0.0517 z"
         id="path12047" />
      <path
         d="m 134.41713,115.1132 q -0.0241,-0.0999 -0.0241,-0.19637 l 0.0103,-0.19637 q -0.51332,0.47542 -1.08865,0.46164 -0.49265,-0.007 -0.80271,-0.31006 -0.30662,-0.30661 -0.27905,-0.76481 0.0344,-0.59256 0.51676,-0.92329 0.48576,-0.33417 1.27469,-0.33417 l 0.65112,0.003 0.0413,-0.29628 q 0.0344,-0.33417 -0.13091,-0.5271 -0.16192,-0.19637 -0.48921,-0.20326 -0.32039,-0.007 -0.56844,0.15848 -0.2446,0.16192 -0.29972,0.43064 l -0.62701,0.003 q 0.031,-0.32728 0.25494,-0.57878 0.22393,-0.25493 0.57533,-0.39274 0.3514,-0.14125 0.72691,-0.13436 0.58223,0.0138 0.90607,0.35485 0.32383,0.33762 0.27216,0.89917 l -0.30317,1.84657 -0.0172,0.26528 q -0.007,0.18948 0.0413,0.37551 l -0.007,0.0586 z m -0.97841,-0.48232 q 0.29972,0.007 0.565,-0.14125 0.26871,-0.15158 0.46164,-0.41685 l 0.13436,-0.76826 -0.47198,-0.003 q -0.58911,0 -0.90262,0.18603 -0.3135,0.18604 -0.35484,0.5271 -0.031,0.26183 0.12058,0.43753 0.15503,0.17225 0.44786,0.17914 z"
         id="path12049" />
      <path
         d="m 139.27816,113.26662 q -0.0689,0.57189 -0.3135,1.03009 -0.2446,0.4582 -0.59256,0.67868 -0.34795,0.22049 -0.7717,0.21015 -0.67524,-0.0138 -1.00252,-0.50642 l -0.12747,0.43408 h -0.57533 l 0.91984,-5.29167 h 0.62356 l -0.37551,1.97748 q 0.44786,-0.49609 1.08865,-0.48231 0.53743,0.0138 0.83716,0.39619 0.29972,0.3824 0.31695,1.0542 0.003,0.22048 -0.0207,0.42719 z m -0.59255,-0.36173 q 0.0103,-0.50298 -0.16881,-0.76826 -0.17915,-0.26871 -0.54777,-0.2825 -0.58222,-0.0138 -0.9853,0.58567 l -0.27905,1.62264 q 0.2067,0.56844 0.77514,0.58222 0.36518,0.0138 0.63735,-0.21704 0.2756,-0.23082 0.41685,-0.64423 0.14125,-0.41686 0.15159,-0.8785 z"
         id="path12051" />
      <path
         d="m 140.44605,115.1132 h -0.62012 l 0.64768,-3.7276 h 0.62012 z m 0.51332,-5.08841 q 0.15847,-0.007 0.26183,0.0965 0.1068,0.0999 0.1068,0.26527 -0.003,0.16192 -0.1068,0.26528 -0.0999,0.10335 -0.26183,0.11024 -0.16192,0.007 -0.26527,-0.093 -0.10336,-0.0999 -0.0999,-0.26183 0.003,-0.16192 0.10335,-0.26871 0.0999,-0.1068 0.26183,-0.11369 z"
         id="path12053" />
      <path
         d="m 142.14104,115.1132 h -0.62012 l 0.9164,-5.29167 h 0.62356 z"
         id="path12055" />
      <path
         d="m 143.83603,115.1132 h -0.62012 l 0.64768,-3.7276 h 0.62011 z m 0.51332,-5.08841 q 0.15847,-0.007 0.26182,0.0965 0.1068,0.0999 0.1068,0.26527 -0.003,0.16192 -0.1068,0.26528 -0.0999,0.10335 -0.26182,0.11024 -0.16192,0.007 -0.26528,-0.093 -0.10335,-0.0999 -0.0999,-0.26183 0.003,-0.16192 0.10335,-0.26871 0.0999,-0.1068 0.26183,-0.11369 z"
         id="path12057" />
      <path
         d="m 146.50254,110.48299 -0.15848,0.90261 h 0.67869 l -0.0861,0.49265 h -0.67524 l -0.3893,2.31855 q -0.0103,0.0896 -0.003,0.16537 0.0241,0.26871 0.29283,0.26871 0.11369,0 0.30317,-0.0345 l -0.0482,0.52021 q -0.22393,0.062 -0.45475,0.062 -0.37207,-0.007 -0.55811,-0.27216 -0.18604,-0.26872 -0.14469,-0.72002 l 0.37896,-2.30822 h -0.65802 l 0.0861,-0.49265 h 0.65801 l 0.15848,-0.90261 z"
         id="path12059" />
      <path
         d="m 148.46279,114.17269 1.32637,-2.78709 h 0.68902 l -2.21176,4.34771 q -0.46164,0.90607 -1.18511,0.89573 -0.12747,-0.003 -0.37552,-0.062 l 0.0551,-0.51677 0.16192,0.0172 q 0.29627,0.0138 0.50987,-0.13436 0.21704,-0.14469 0.38241,-0.47198 l 0.22393,-0.42719 -0.64424,-3.64836 h 0.65113 z"
         id="path12061" />
    </g>
    <g
       aria-label="IOP-OKH-A"
       id="text1027-35"
       style="font-weight:bold;font-size:10.2306px;line-height:100%;font-family:Roboto;-inkscape-font-specification:'Roboto Bold';letter-spacing:0px;word-spacing:0px;fill:#4d4d4d">
      <path
         d="m 77.968006,104.48736 h -1.498623 v -7.273319 h 1.498623 z"
         id="path11990" />
      <path
         d="m 85.331241,101.01555 q 0,1.07401 -0.379651,1.88327 -0.379651,0.80925 -1.088999,1.24885 -0.704353,0.4396 -1.618513,0.4396 -0.90417,0 -1.613518,-0.4346 -0.709348,-0.43461 -1.09899,-1.23887 -0.389642,-0.80925 -0.394638,-1.85829 v -0.35967 q 0,-1.074012 0.384647,-1.888263 0.389642,-0.819248 1.093995,-1.253848 0.709348,-0.439597 1.618513,-0.439597 0.909165,0 1.613517,0.439597 0.709349,0.4346 1.093995,1.253848 0.389642,0.814251 0.389642,1.883273 z m -1.518605,-0.3297 q 0,-1.143948 -0.409623,-1.738402 -0.409624,-0.594454 -1.168926,-0.594454 -0.754307,0 -1.163931,0.589459 -0.409623,0.584463 -0.414619,1.718417 v 0.35468 q 0,1.11397 0.409624,1.72841 0.409623,0.61444 1.178917,0.61444 0.754307,0 1.158935,-0.58946 0.404628,-0.59446 0.409623,-1.72842 z"
         id="path11992" />
      <path
         d="m 87.918864,101.92471 v 2.56265 h -1.498623 v -7.273319 h 2.837393 q 0.819247,0 1.438678,0.299724 0.624427,0.299725 0.959119,0.854215 0.334693,0.549496 0.334693,1.253848 0,1.069022 -0.734326,1.688452 -0.72933,0.61443 -2.023141,0.61443 z m 0,-1.21388 h 1.33877 q 0.594454,0 0.904169,-0.27975 0.314711,-0.27974 0.314711,-0.799261 0,-0.534509 -0.314711,-0.864206 -0.31471,-0.329697 -0.869201,-0.339688 h -1.373738 z"
         id="path11994" />
      <path
         d="m 95.731685,101.95469 h -2.812416 v -1.16394 h 2.812416 z"
         id="path11996" />
      <path
         d="m 102.96004,101.01555 q 0,1.07401 -0.37965,1.88327 -0.37965,0.80925 -1.089,1.24885 -0.70435,0.4396 -1.618509,0.4396 -0.90417,0 -1.613518,-0.4346 -0.709348,-0.43461 -1.09899,-1.23887 -0.389642,-0.80925 -0.394638,-1.85829 v -0.35967 q 0,-1.074012 0.384647,-1.888263 0.389642,-0.819248 1.093995,-1.253848 0.709348,-0.439597 1.618513,-0.439597 0.90916,0 1.61352,0.439597 0.70935,0.4346 1.09399,1.253848 0.38964,0.814251 0.38964,1.883273 z m -1.5186,-0.3297 q 0,-1.143948 -0.40962,-1.738402 -0.40963,-0.594454 -1.16893,-0.594454 -0.754307,0 -1.163931,0.589459 -0.409623,0.584463 -0.414619,1.718417 v 0.35468 q 0,1.11397 0.409624,1.72841 0.409623,0.61444 1.178917,0.61444 0.754309,0 1.158939,-0.58946 0.40462,-0.59446 0.40962,-1.72842 z"
         id="path11998" />
      <path
         d="m 106.32695,101.57004 -0.77928,0.83923 v 2.07809 h -1.49863 v -7.273319 h 1.49863 v 3.296969 l 0.65939,-0.904168 1.8533,-2.392801 h 1.84331 l -2.58263,3.232029 2.65756,4.04129 h -1.78337 z"
         id="path12000" />
      <path
         d="m 116.46264,104.48736 h -1.49863 v -3.11714 h -2.92231 v 3.11714 h -1.49862 v -7.273319 h 1.49862 v 2.947289 h 2.92231 v -2.947289 h 1.49863 z"
         id="path12002" />
      <path
         d="m 120.48394,101.95469 h -2.81241 v -1.16394 h 2.81241 z"
         id="path12004" />
      <path
         d="m 125.84402,102.98873 h -2.62758 l -0.49955,1.49863 h -1.59353 l 2.70751,-7.273319 h 1.38872 l 2.7225,7.273319 h -1.59353 z m -2.22296,-1.21388 h 1.81833 l -0.91416,-2.722498 z"
         id="path12006" />
    </g>
  </g>
</svg>
